<svg xmlns="http://www.w3.org/2000/svg" viewBox="0 0 266.19 40" width="266.19" height="40"><g transform="translate(0 0) scale(0.16)"><circle cx="128" cy="128" r="126" fill="#4F46E5"/><circle cx="128" cy="128" r="110" fill="none" stroke="#F5B82E" stroke-width="14"/><path d="M71.18 61.41Q73.86 61.41 78.37 61.66Q82.87 61.9 87.74 62.33Q92.61 62.75 96.26 63.18Q99.92 63.6 101.01 64.09L98.58 82.48H97.36Q97.36 75.78 92.18 71.64Q87.01 67.5 78 67.5Q73.01 67.5 69.42 68.84Q65.83 70.18 63.76 72.43Q61.69 74.68 61.44 77.73Q61.08 82.11 64.42 84.55Q67.77 86.98 72.28 89.05L95.05 99.64Q101.86 102.69 105.76 108.53Q109.66 114.38 109.05 123.26Q108.2 136.29 98.15 143.17Q88.11 150.05 70.82 150.05Q60.22 150.05 52.68 147.74Q45.13 145.42 41.96 142.14Q40.62 139.09 40.87 134.71Q41.11 130.33 42.51 126Q43.91 121.68 45.86 119.12H46.95Q46.59 125.45 49.63 131.18Q52.68 136.9 58.76 140.43Q64.85 143.96 73.37 143.96Q79.22 143.96 83.05 142.26Q86.89 140.55 88.71 137.81Q90.54 135.07 90.54 132.03Q90.54 128.13 87.56 124.97Q84.58 121.8 77.64 118.64L57.79 109.38Q49.39 105.49 45.55 98.67Q41.72 91.85 42.81 83.21Q43.67 76.15 47.32 71.27Q50.97 66.4 57 63.91Q63.02 61.41 71.18 61.41ZM101.26 62.63 100.89 65.19H83.24V62.63ZM77.27 52.4 83.11 52.53 74.83 160.76 68.99 160.4Z" fill="#B7791F"/><path d="M70.87 60.66Q73.54 60.66 78.05 60.9Q82.55 61.15 87.42 61.57Q92.29 62 95.95 62.43Q99.6 62.85 100.7 63.34L98.26 81.72H97.04Q97.04 75.03 91.87 70.89Q86.69 66.75 77.68 66.75Q72.69 66.75 69.1 68.09Q65.51 69.43 63.44 71.68Q61.37 73.93 61.13 76.98Q60.76 81.36 64.11 83.79Q67.46 86.23 71.96 88.3L94.73 98.89Q101.55 101.93 105.44 107.78Q109.34 113.62 108.73 122.51Q107.88 135.54 97.83 142.42Q87.79 149.3 70.5 149.3Q59.91 149.3 52.36 146.98Q44.81 144.67 41.65 141.38Q40.31 138.34 40.55 133.96Q40.79 129.57 42.19 125.25Q43.59 120.93 45.54 118.37H46.64Q46.27 124.7 49.32 130.42Q52.36 136.15 58.45 139.68Q64.54 143.21 73.06 143.21Q78.9 143.21 82.74 141.5Q86.57 139.8 88.4 137.06Q90.22 134.32 90.22 131.28Q90.22 127.38 87.24 124.22Q84.26 121.05 77.32 117.88L57.47 108.63Q49.07 104.73 45.24 97.92Q41.4 91.1 42.5 82.45Q43.35 75.39 47 70.52Q50.66 65.65 56.68 63.16Q62.71 60.66 70.87 60.66ZM100.94 61.88 100.57 64.43H82.92V61.88ZM76.95 51.65 82.8 51.77 74.52 160.01 68.67 159.65Z" fill="#B7791F"/><path d="M70.55 59.91Q73.23 59.91 77.73 60.15Q82.24 60.39 87.11 60.82Q91.98 61.25 95.63 61.67Q99.28 62.1 100.38 62.59L97.94 80.97H96.73Q96.73 74.27 91.55 70.14Q86.38 66 77.37 66Q72.38 66 68.78 67.33Q65.19 68.67 63.12 70.93Q61.05 73.18 60.81 76.22Q60.44 80.61 63.79 83.04Q67.14 85.48 71.65 87.55L94.41 98.14Q101.23 101.18 105.13 107.03Q109.02 112.87 108.42 121.76Q107.56 134.79 97.52 141.66Q87.47 148.54 70.18 148.54Q59.59 148.54 52.04 146.23Q44.5 143.92 41.33 140.63Q39.99 137.59 40.23 133.2Q40.48 128.82 41.88 124.5Q43.28 120.18 45.23 117.62H46.32Q45.96 123.95 49 129.67Q52.04 135.39 58.13 138.93Q64.22 142.46 72.74 142.46Q78.59 142.46 82.42 140.75Q86.26 139.05 88.08 136.31Q89.91 133.57 89.91 130.52Q89.91 126.63 86.93 123.46Q83.94 120.3 77 117.13L57.16 107.88Q48.76 103.98 44.92 97.16Q41.09 90.35 42.18 81.7Q43.03 74.64 46.69 69.77Q50.34 64.9 56.37 62.4Q62.39 59.91 70.55 59.91ZM100.62 61.13 100.26 63.68H82.6V61.13ZM76.64 50.9 82.48 51.02 74.2 159.26 68.36 158.89Z" fill="#B7791F"/><path d="M70.23 59.16Q72.91 59.16 77.42 59.4Q81.92 59.64 86.79 60.07Q91.66 60.49 95.32 60.92Q98.97 61.35 100.06 61.83L97.63 80.22H96.41Q96.41 73.52 91.24 69.38Q86.06 65.24 77.05 65.24Q72.06 65.24 68.47 66.58Q64.88 67.92 62.81 70.17Q60.74 72.43 60.49 75.47Q60.13 79.85 63.48 82.29Q66.83 84.72 71.33 86.79L94.1 97.39Q100.92 100.43 104.81 106.27Q108.71 112.12 108.1 121.01Q107.25 134.03 97.2 140.91Q87.16 147.79 69.87 147.79Q59.28 147.79 51.73 145.48Q44.18 143.16 41.01 139.88Q39.67 136.83 39.92 132.45Q40.16 128.07 41.56 123.75Q42.96 119.42 44.91 116.87H46.01Q45.64 123.2 48.68 128.92Q51.73 134.64 57.82 138.17Q63.9 141.7 72.43 141.7Q78.27 141.7 82.1 140Q85.94 138.29 87.77 135.56Q89.59 132.82 89.59 129.77Q89.59 125.88 86.61 122.71Q83.63 119.54 76.69 116.38L56.84 107.13Q48.44 103.23 44.61 96.41Q40.77 89.59 41.87 80.95Q42.72 73.89 46.37 69.02Q50.02 64.15 56.05 61.65Q62.08 59.16 70.23 59.16ZM100.31 60.37 99.94 62.93H82.29V60.37ZM76.32 50.15 82.17 50.27 73.89 158.51 68.04 158.14Z" fill="#B7791F"/><path d="M69.92 58.4Q72.6 58.4 77.1 58.65Q81.61 58.89 86.48 59.32Q91.35 59.74 95 60.17Q98.65 60.59 99.75 61.08L97.31 79.47H96.09Q96.09 72.77 90.92 68.63Q85.75 64.49 76.74 64.49Q71.74 64.49 68.15 65.83Q64.56 67.17 62.49 69.42Q60.42 71.67 60.18 74.72Q59.81 79.1 63.16 81.54Q66.51 83.97 71.01 86.04L93.78 96.63Q100.6 99.68 104.5 105.52Q108.39 111.37 107.78 120.25Q106.93 133.28 96.89 140.16Q86.84 147.04 69.55 147.04Q58.96 147.04 51.41 144.73Q43.86 142.41 40.7 139.13Q39.36 136.08 39.6 131.7Q39.85 127.32 41.25 122.99Q42.65 118.67 44.59 116.11H45.69Q45.32 122.44 48.37 128.17Q51.41 133.89 57.5 137.42Q63.59 140.95 72.11 140.95Q77.95 140.95 81.79 139.25Q85.62 137.54 87.45 134.8Q89.28 132.06 89.28 129.02Q89.28 125.12 86.29 121.96Q83.31 118.79 76.37 115.63L56.53 106.37Q48.12 102.48 44.29 95.66Q40.45 88.84 41.55 80.2Q42.4 73.14 46.05 68.26Q49.71 63.39 55.73 60.9Q61.76 58.4 69.92 58.4ZM99.99 59.62 99.63 62.18H81.97V59.62ZM76.01 49.39 81.85 49.52 73.57 157.75 67.73 157.39Z" fill="#B7791F"/><path d="M69.6 57.65Q72.28 57.65 76.79 57.89Q81.29 58.14 86.16 58.56Q91.03 58.99 94.68 59.42Q98.34 59.84 99.43 60.33L97 78.71H95.78Q95.78 72.02 90.6 67.88Q85.43 63.74 76.42 63.74Q71.43 63.74 67.84 65.08Q64.24 66.42 62.18 68.67Q60.11 70.92 59.86 73.97Q59.5 78.35 62.84 80.78Q66.19 83.22 70.7 85.29L93.47 95.88Q100.28 98.92 104.18 104.77Q108.08 110.61 107.47 119.5Q106.61 132.53 96.57 139.41Q86.53 146.29 69.24 146.29Q58.64 146.29 51.1 143.97Q43.55 141.66 40.38 138.37Q39.04 135.33 39.29 130.95Q39.53 126.56 40.93 122.24Q42.33 117.92 44.28 115.36H45.37Q45.01 121.69 48.05 127.41Q51.1 133.14 57.18 136.67Q63.27 140.2 71.79 140.2Q77.64 140.2 81.47 138.49Q85.31 136.79 87.13 134.05Q88.96 131.31 88.96 128.27Q88.96 124.37 85.98 121.21Q82.99 118.04 76.05 114.87L56.21 105.62Q47.81 101.72 43.97 94.91Q40.14 88.09 41.23 79.44Q42.09 72.38 45.74 67.51Q49.39 62.64 55.42 60.15Q61.44 57.65 69.6 57.65ZM99.67 58.87 99.31 61.42H81.66V58.87ZM75.69 48.64 81.53 48.76 73.25 157 67.41 156.64Z" fill="#B7791F"/><path d="M69.29 56.9Q71.96 56.9 76.47 57.14Q80.97 57.38 85.84 57.81Q90.71 58.24 94.37 58.66Q98.02 59.09 99.12 59.58L96.68 77.96H95.46Q95.46 71.26 90.29 67.13Q85.11 62.99 76.1 62.99Q71.11 62.99 67.52 64.32Q63.93 65.66 61.86 67.92Q59.79 70.17 59.55 73.21Q59.18 77.6 62.53 80.03Q65.88 82.47 70.38 84.54L93.15 95.13Q99.97 98.17 103.86 104.02Q107.76 109.86 107.15 118.75Q106.3 131.78 96.25 138.65Q86.21 145.53 68.92 145.53Q58.33 145.53 50.78 143.22Q43.23 140.91 40.07 137.62Q38.73 134.58 38.97 130.19Q39.21 125.81 40.61 121.49Q42.01 117.17 43.96 114.61H45.06Q44.69 120.94 47.74 126.66Q50.78 132.38 56.87 135.92Q62.95 139.45 71.48 139.45Q77.32 139.45 81.16 137.74Q84.99 136.04 86.82 133.3Q88.64 130.56 88.64 127.51Q88.64 123.62 85.66 120.45Q82.68 117.29 75.74 114.12L55.89 104.87Q47.49 100.97 43.66 94.15Q39.82 87.34 40.92 78.69Q41.77 71.63 45.42 66.76Q49.07 61.89 55.1 59.39Q61.13 56.9 69.29 56.9ZM99.36 58.12 98.99 60.67H81.34V58.12ZM75.37 47.89 81.22 48.01 72.94 156.25 67.09 155.88Z" fill="#B7791F"/><path d="M68.97 56.15Q71.65 56.15 76.15 56.39Q80.66 56.63 85.53 57.06Q90.4 57.48 94.05 57.91Q97.7 58.34 98.8 58.82L96.36 77.21H95.15Q95.15 70.51 89.97 66.37Q84.8 62.23 75.79 62.23Q70.8 62.23 67.2 63.57Q63.61 64.91 61.54 67.16Q59.47 69.42 59.23 72.46Q58.86 76.84 62.21 79.28Q65.56 81.71 70.07 83.78L92.83 94.38Q99.65 97.42 103.55 103.26Q107.44 109.11 106.84 118Q105.98 131.02 95.94 137.9Q85.89 144.78 68.6 144.78Q58.01 144.78 50.46 142.47Q42.91 140.15 39.75 136.87Q38.41 133.82 38.65 129.44Q38.9 125.06 40.3 120.74Q41.7 116.41 43.65 113.86H44.74Q44.38 120.19 47.42 125.91Q50.46 131.63 56.55 135.16Q62.64 138.69 71.16 138.69Q77.01 138.69 80.84 136.99Q84.68 135.28 86.5 132.55Q88.33 129.81 88.33 126.76Q88.33 122.87 85.35 119.7Q82.36 116.53 75.42 113.37L55.58 104.12Q47.18 100.22 43.34 93.4Q39.51 86.58 40.6 77.94Q41.45 70.88 45.11 66.01Q48.76 61.14 54.79 58.64Q60.81 56.15 68.97 56.15ZM99.04 57.36 98.68 59.92H81.02V57.36ZM75.06 47.14 80.9 47.26 72.62 155.5 66.78 155.13Z" fill="#B7791F"/><path d="M68.65 55.39Q71.33 55.39 75.84 55.64Q80.34 55.88 85.21 56.31Q90.08 56.73 93.73 57.16Q97.39 57.58 98.48 58.07L96.05 76.46H94.83Q94.83 69.76 89.66 65.62Q84.48 61.48 75.47 61.48Q70.48 61.48 66.89 62.82Q63.3 64.16 61.23 66.41Q59.16 68.66 58.91 71.71Q58.55 76.09 61.9 78.53Q65.24 80.96 69.75 83.03L92.52 93.62Q99.34 96.67 103.23 102.51Q107.13 108.36 106.52 117.24Q105.67 130.27 95.62 137.15Q85.58 144.03 68.29 144.03Q57.7 144.03 50.15 141.72Q42.6 139.4 39.43 136.12Q38.09 133.07 38.34 128.69Q38.58 124.31 39.98 119.98Q41.38 115.66 43.33 113.1H44.43Q44.06 119.43 47.1 125.16Q50.15 130.88 56.24 134.41Q62.32 137.94 70.85 137.94Q76.69 137.94 80.52 136.24Q84.36 134.53 86.19 131.79Q88.01 129.05 88.01 126.01Q88.01 122.11 85.03 118.95Q82.05 115.78 75.11 112.62L55.26 103.36Q46.86 99.47 43.02 92.65Q39.19 85.83 40.29 77.19Q41.14 70.13 44.79 65.25Q48.44 60.38 54.47 57.89Q60.5 55.39 68.65 55.39ZM98.73 56.61 98.36 59.17H80.71V56.61ZM74.74 46.38 80.59 46.51 72.31 154.74 66.46 154.38Z" fill="#B7791F"/><path d="M66.53 52.83Q69.21 52.83 73.72 53.08Q78.22 53.32 83.09 53.75Q87.96 54.17 91.61 54.6Q95.27 55.03 96.36 55.51L93.93 73.9H92.71Q92.71 67.2 87.53 63.06Q82.36 58.92 73.35 58.92Q68.36 58.92 64.77 60.26Q61.17 61.6 59.1 63.85Q57.04 66.11 56.79 69.15Q56.43 73.53 59.77 75.97Q63.12 78.4 67.63 80.47L90.4 91.06Q97.21 94.11 101.11 99.95Q105.01 105.8 104.4 114.68Q103.54 127.71 93.5 134.59Q83.46 141.47 66.17 141.47Q55.57 141.47 48.03 139.16Q40.48 136.84 37.31 133.56Q35.97 130.51 36.22 126.13Q36.46 121.75 37.86 117.42Q39.26 113.1 41.21 110.55H42.3Q41.94 116.88 44.98 122.6Q48.03 128.32 54.11 131.85Q60.2 135.38 68.72 135.38Q74.57 135.38 78.4 133.68Q82.24 131.97 84.06 129.23Q85.89 126.49 85.89 123.45Q85.89 119.55 82.91 116.39Q79.92 113.22 72.98 110.06L53.14 100.81Q44.74 96.91 40.9 90.09Q37.07 83.27 38.16 74.63Q39.02 67.57 42.67 62.7Q46.32 57.83 52.35 55.33Q58.37 52.83 66.53 52.83ZM96.6 54.05 96.24 56.61H78.59V54.05ZM72.62 43.82 78.46 43.95 70.18 152.18 64.34 151.82Z" fill="#FFE9A8"/><path d="M68.34 54.64Q71.02 54.64 75.52 54.88Q80.03 55.13 84.9 55.55Q89.77 55.98 93.42 56.41Q97.07 56.83 98.17 57.32L95.73 75.7H94.51Q94.51 69.01 89.34 64.87Q84.17 60.73 75.16 60.73Q70.16 60.73 66.57 62.07Q62.98 63.41 60.91 65.66Q58.84 67.91 58.6 70.96Q58.23 75.34 61.58 77.77Q64.93 80.21 69.43 82.28L92.2 92.87Q99.02 95.91 102.92 101.76Q106.81 107.6 106.2 116.49Q105.35 129.52 95.31 136.4Q85.26 143.28 67.97 143.28Q57.38 143.28 49.83 140.96Q42.28 138.65 39.12 135.36Q37.78 132.32 38.02 127.94Q38.26 123.55 39.67 119.23Q41.07 114.91 43.01 112.35H44.11Q43.74 118.68 46.79 124.4Q49.83 130.13 55.92 133.66Q62.01 137.19 70.53 137.19Q76.37 137.19 80.21 135.48Q84.04 133.78 85.87 131.04Q87.7 128.3 87.7 125.26Q87.7 121.36 84.71 118.2Q81.73 115.03 74.79 111.86L54.94 102.61Q46.54 98.71 42.71 91.9Q38.87 85.08 39.97 76.43Q40.82 69.37 44.47 64.5Q48.13 59.63 54.15 57.14Q60.18 54.64 68.34 54.64ZM98.41 55.86 98.05 58.41H80.39V55.86ZM74.43 45.63 80.27 45.75 71.99 153.99 66.15 153.63Z" fill="#F5B82E"/><path d="M154.58 63.12V116.69Q154.58 125.21 157.26 131.3Q159.94 137.39 164.87 140.61Q169.8 143.84 176.74 143.84Q183.8 143.84 188.73 140.8Q193.67 137.75 196.34 132.03Q199.02 126.31 199.02 118.27V63.12H209.62V117.05Q209.62 127.28 205.35 134.71Q201.09 142.14 192.94 146.09Q184.78 150.05 173.09 150.05Q158.24 150.05 148.56 146.09Q138.88 142.14 134.25 134.77Q129.62 127.4 129.62 117.18V63.12ZM129.99 63.12V70.42H129.62Q129.62 67.74 127.74 66.04Q125.85 64.34 123.17 64.34Q123.17 64.34 122.2 64.34Q121.22 64.34 121.22 64.34V63.12ZM162.98 63.12V64.34Q162.98 64.34 162.01 64.34Q161.04 64.34 161.04 64.34Q158.36 64.34 156.47 66.04Q154.58 67.74 154.58 70.42H154.34V63.12ZM199.39 63.12V70.42H199.02Q199.02 67.74 197.14 66.04Q195.25 64.34 192.57 64.34Q192.57 64.34 191.6 64.34Q190.62 64.34 190.62 64.34V63.12ZM218.02 63.12V64.34Q218.02 64.34 217.04 64.34Q216.07 64.34 216.07 64.34Q213.39 64.34 211.5 66.04Q209.62 67.74 209.62 70.42H209.37V63.12Z" fill="#AEB2EE"/><path d="M154.27 62.36V115.94Q154.27 124.46 156.95 130.55Q159.62 136.63 164.55 139.86Q169.49 143.09 176.43 143.09Q183.49 143.09 188.42 140.04Q193.35 137 196.03 131.28Q198.71 125.55 198.71 117.52V62.36H209.3V116.3Q209.3 126.53 205.04 133.96Q200.78 141.38 192.62 145.34Q184.46 149.3 172.77 149.3Q157.92 149.3 148.24 145.34Q138.56 141.38 133.93 134.02Q129.31 126.65 129.31 116.42V62.36ZM129.67 62.36V69.67H129.31Q129.31 66.99 127.42 65.29Q125.53 63.58 122.85 63.58Q122.85 63.58 121.88 63.58Q120.91 63.58 120.91 63.58V62.36ZM162.67 62.36V63.58Q162.67 63.58 161.69 63.58Q160.72 63.58 160.72 63.58Q158.04 63.58 156.15 65.29Q154.27 66.99 154.27 69.67H154.02V62.36ZM199.07 62.36V69.67H198.71Q198.71 66.99 196.82 65.29Q194.93 63.58 192.25 63.58Q192.25 63.58 191.28 63.58Q190.31 63.58 190.31 63.58V62.36ZM217.7 62.36V63.58Q217.7 63.58 216.73 63.58Q215.75 63.58 215.75 63.58Q213.07 63.58 211.19 65.29Q209.3 66.99 209.3 69.67H209.06V62.36Z" fill="#AEB2EE"/><path d="M153.95 61.61V115.18Q153.95 123.71 156.63 129.79Q159.31 135.88 164.24 139.11Q169.17 142.33 176.11 142.33Q183.17 142.33 188.1 139.29Q193.03 136.25 195.71 130.52Q198.39 124.8 198.39 116.77V61.61H208.98V115.55Q208.98 125.78 204.72 133.2Q200.46 140.63 192.3 144.59Q184.15 148.54 172.46 148.54Q157.6 148.54 147.92 144.59Q138.24 140.63 133.62 133.26Q128.99 125.9 128.99 115.67V61.61ZM129.36 61.61V68.92H128.99Q128.99 66.24 127.1 64.53Q125.22 62.83 122.54 62.83Q122.54 62.83 121.56 62.83Q120.59 62.83 120.59 62.83V61.61ZM162.35 61.61V62.83Q162.35 62.83 161.38 62.83Q160.4 62.83 160.4 62.83Q157.73 62.83 155.84 64.53Q153.95 66.24 153.95 68.92H153.71V61.61ZM198.76 61.61V68.92H198.39Q198.39 66.24 196.5 64.53Q194.62 62.83 191.94 62.83Q191.94 62.83 190.96 62.83Q189.99 62.83 189.99 62.83V61.61ZM217.38 61.61V62.83Q217.38 62.83 216.41 62.83Q215.44 62.83 215.44 62.83Q212.76 62.83 210.87 64.53Q208.98 66.24 208.98 68.92H208.74V61.61Z" fill="#AEB2EE"/><path d="M153.63 60.86V114.43Q153.63 122.95 156.31 129.04Q158.99 135.13 163.92 138.36Q168.85 141.58 175.79 141.58Q182.86 141.58 187.79 138.54Q192.72 135.49 195.4 129.77Q198.07 124.05 198.07 116.01V60.86H208.67V114.8Q208.67 125.02 204.41 132.45Q200.14 139.88 191.99 143.83Q183.83 147.79 172.14 147.79Q157.29 147.79 147.61 143.83Q137.93 139.88 133.3 132.51Q128.68 125.15 128.68 114.92V60.86ZM129.04 60.86V68.17H128.68Q128.68 65.49 126.79 63.78Q124.9 62.08 122.22 62.08Q122.22 62.08 121.25 62.08Q120.27 62.08 120.27 62.08V60.86ZM162.04 60.86V62.08Q162.04 62.08 161.06 62.08Q160.09 62.08 160.09 62.08Q157.41 62.08 155.52 63.78Q153.63 65.49 153.63 68.17H153.39V60.86ZM198.44 60.86V68.17H198.07Q198.07 65.49 196.19 63.78Q194.3 62.08 191.62 62.08Q191.62 62.08 190.65 62.08Q189.67 62.08 189.67 62.08V60.86ZM217.07 60.86V62.08Q217.07 62.08 216.09 62.08Q215.12 62.08 215.12 62.08Q212.44 62.08 210.55 63.78Q208.67 65.49 208.67 68.17H208.42V60.86Z" fill="#AEB2EE"/><path d="M153.32 60.11V113.68Q153.32 122.2 156 128.29Q158.68 134.38 163.61 137.6Q168.54 140.83 175.48 140.83Q182.54 140.83 187.47 137.79Q192.4 134.74 195.08 129.02Q197.76 123.3 197.76 115.26V60.11H208.35V114.04Q208.35 124.27 204.09 131.7Q199.83 139.13 191.67 143.08Q183.51 147.04 171.83 147.04Q156.97 147.04 147.29 143.08Q137.61 139.13 132.99 131.76Q128.36 124.39 128.36 114.17V60.11ZM128.72 60.11V67.41H128.36Q128.36 64.73 126.47 63.03Q124.59 61.33 121.91 61.33Q121.91 61.33 120.93 61.33Q119.96 61.33 119.96 61.33V60.11ZM161.72 60.11V61.33Q161.72 61.33 160.75 61.33Q159.77 61.33 159.77 61.33Q157.09 61.33 155.21 63.03Q153.32 64.73 153.32 67.41H153.08V60.11ZM198.12 60.11V67.41H197.76Q197.76 64.73 195.87 63.03Q193.98 61.33 191.31 61.33Q191.31 61.33 190.33 61.33Q189.36 61.33 189.36 61.33V60.11ZM216.75 60.11V61.33Q216.75 61.33 215.78 61.33Q214.8 61.33 214.8 61.33Q212.13 61.33 210.24 63.03Q208.35 64.73 208.35 67.41H208.11V60.11Z" fill="#AEB2EE"/><path d="M153 59.35V112.93Q153 121.45 155.68 127.54Q158.36 133.62 163.29 136.85Q168.22 140.08 175.16 140.08Q182.22 140.08 187.15 137.03Q192.09 133.99 194.76 128.27Q197.44 122.54 197.44 114.51V59.35H208.03V113.29Q208.03 123.52 203.77 130.95Q199.51 138.37 191.35 142.33Q183.2 146.29 171.51 146.29Q156.66 146.29 146.98 142.33Q137.3 138.37 132.67 131.01Q128.04 123.64 128.04 113.41V59.35ZM128.41 59.35V66.66H128.04Q128.04 63.98 126.16 62.28Q124.27 60.57 121.59 60.57Q121.59 60.57 120.62 60.57Q119.64 60.57 119.64 60.57V59.35ZM161.4 59.35V60.57Q161.4 60.57 160.43 60.57Q159.46 60.57 159.46 60.57Q156.78 60.57 154.89 62.28Q153 63.98 153 66.66H152.76V59.35ZM197.81 59.35V66.66H197.44Q197.44 63.98 195.56 62.28Q193.67 60.57 190.99 60.57Q190.99 60.57 190.02 60.57Q189.04 60.57 189.04 60.57V59.35ZM216.44 59.35V60.57Q216.44 60.57 215.46 60.57Q214.49 60.57 214.49 60.57Q211.81 60.57 209.92 62.28Q208.03 63.98 208.03 66.66H207.79V59.35Z" fill="#AEB2EE"/><path d="M152.69 58.6V112.17Q152.69 120.7 155.37 126.78Q158.04 132.87 162.97 136.1Q167.91 139.32 174.85 139.32Q181.91 139.32 186.84 136.28Q191.77 133.24 194.45 127.51Q197.13 121.79 197.13 113.76V58.6H207.72V112.54Q207.72 122.77 203.46 130.19Q199.2 137.62 191.04 141.58Q182.88 145.53 171.19 145.53Q156.34 145.53 146.66 141.58Q136.98 137.62 132.35 130.25Q127.73 122.89 127.73 112.66V58.6ZM128.09 58.6V65.91H127.73Q127.73 63.23 125.84 61.52Q123.95 59.82 121.27 59.82Q121.27 59.82 120.3 59.82Q119.33 59.82 119.33 59.82V58.6ZM161.09 58.6V59.82Q161.09 59.82 160.11 59.82Q159.14 59.82 159.14 59.82Q156.46 59.82 154.57 61.52Q152.69 63.23 152.69 65.91H152.44V58.6ZM197.49 58.6V65.91H197.13Q197.13 63.23 195.24 61.52Q193.35 59.82 190.67 59.82Q190.67 59.82 189.7 59.82Q188.73 59.82 188.73 59.82V58.6ZM216.12 58.6V59.82Q216.12 59.82 215.15 59.82Q214.17 59.82 214.17 59.82Q211.49 59.82 209.61 61.52Q207.72 63.23 207.72 65.91H207.48V58.6Z" fill="#AEB2EE"/><path d="M152.37 57.85V111.42Q152.37 119.94 155.05 126.03Q157.73 132.12 162.66 135.35Q167.59 138.57 174.53 138.57Q181.59 138.57 186.52 135.53Q191.45 132.48 194.13 126.76Q196.81 121.04 196.81 113V57.85H207.4V111.79Q207.4 122.01 203.14 129.44Q198.88 136.87 190.72 140.82Q182.57 144.78 170.88 144.78Q156.02 144.78 146.34 140.82Q136.66 136.87 132.04 129.5Q127.41 122.14 127.41 111.91V57.85ZM127.78 57.85V65.16H127.41Q127.41 62.48 125.52 60.77Q123.64 59.07 120.96 59.07Q120.96 59.07 119.98 59.07Q119.01 59.07 119.01 59.07V57.85ZM160.77 57.85V59.07Q160.77 59.07 159.8 59.07Q158.82 59.07 158.82 59.07Q156.14 59.07 154.26 60.77Q152.37 62.48 152.37 65.16H152.13V57.85ZM197.18 57.85V65.16H196.81Q196.81 62.48 194.92 60.77Q193.04 59.07 190.36 59.07Q190.36 59.07 189.38 59.07Q188.41 59.07 188.41 59.07V57.85ZM215.8 57.85V59.07Q215.8 59.07 214.83 59.07Q213.86 59.07 213.86 59.07Q211.18 59.07 209.29 60.77Q207.4 62.48 207.4 65.16H207.16V57.85Z" fill="#AEB2EE"/><path d="M152.05 57.1V110.67Q152.05 119.19 154.73 125.28Q157.41 131.37 162.34 134.59Q167.27 137.82 174.21 137.82Q181.28 137.82 186.21 134.78Q191.14 131.73 193.82 126.01Q196.49 120.29 196.49 112.25V57.1H207.09V111.03Q207.09 121.26 202.83 128.69Q198.56 136.12 190.41 140.07Q182.25 144.03 170.56 144.03Q155.71 144.03 146.03 140.07Q136.35 136.12 131.72 128.75Q127.1 121.38 127.1 111.16V57.1ZM127.46 57.1V64.4H127.1Q127.1 61.72 125.21 60.02Q123.32 58.32 120.64 58.32Q120.64 58.32 119.67 58.32Q118.69 58.32 118.69 58.32V57.1ZM160.46 57.1V58.32Q160.46 58.32 159.48 58.32Q158.51 58.32 158.51 58.32Q155.83 58.32 153.94 60.02Q152.05 61.72 152.05 64.4H151.81V57.1ZM196.86 57.1V64.4H196.49Q196.49 61.72 194.61 60.02Q192.72 58.32 190.04 58.32Q190.04 58.32 189.07 58.32Q188.09 58.32 188.09 58.32V57.1ZM215.49 57.1V58.32Q215.49 58.32 214.51 58.32Q213.54 58.32 213.54 58.32Q210.86 58.32 208.97 60.02Q207.09 61.72 207.09 64.4H206.84V57.1Z" fill="#AEB2EE"/><path d="M149.93 54.54V108.11Q149.93 116.63 152.61 122.72Q155.29 128.81 160.22 132.03Q165.15 135.26 172.09 135.26Q179.15 135.26 184.08 132.22Q189.02 129.17 191.69 123.45Q194.37 117.73 194.37 109.69V54.54H204.96V108.48Q204.96 118.7 200.7 126.13Q196.44 133.56 188.28 137.51Q180.13 141.47 168.44 141.47Q153.59 141.47 143.91 137.51Q134.23 133.56 129.6 126.19Q124.97 118.82 124.97 108.6V54.54ZM125.34 54.54V61.84H124.97Q124.97 59.17 123.09 57.46Q121.2 55.76 118.52 55.76Q118.52 55.76 117.55 55.76Q116.57 55.76 116.57 55.76V54.54ZM158.33 54.54V55.76Q158.33 55.76 157.36 55.76Q156.39 55.76 156.39 55.76Q153.71 55.76 151.82 57.46Q149.93 59.17 149.93 61.84H149.69V54.54ZM194.74 54.54V61.84H194.37Q194.37 59.17 192.49 57.46Q190.6 55.76 187.92 55.76Q187.92 55.76 186.95 55.76Q185.97 55.76 185.97 55.76V54.54ZM213.37 54.54V55.76Q213.37 55.76 212.39 55.76Q211.42 55.76 211.42 55.76Q208.74 55.76 206.85 57.46Q204.96 59.17 204.96 61.84H204.72V54.54Z" fill="#FFFFFF"/><path d="M151.74 56.34V109.92Q151.74 118.44 154.42 124.53Q157.1 130.61 162.03 133.84Q166.96 137.07 173.9 137.07Q180.96 137.07 185.89 134.02Q190.82 130.98 193.5 125.26Q196.18 119.53 196.18 111.5V56.34H206.77V110.28Q206.77 120.51 202.51 127.94Q198.25 135.36 190.09 139.32Q181.93 143.28 170.24 143.28Q155.39 143.28 145.71 139.32Q136.03 135.36 131.41 128Q126.78 120.63 126.78 110.4V56.34ZM127.14 56.34V63.65H126.78Q126.78 60.97 124.89 59.27Q123 57.56 120.33 57.56Q120.33 57.56 119.35 57.56Q118.38 57.56 118.38 57.56V56.34ZM160.14 56.34V57.56Q160.14 57.56 159.17 57.56Q158.19 57.56 158.19 57.56Q155.51 57.56 153.63 59.27Q151.74 60.97 151.74 63.65H151.49V56.34ZM196.54 56.34V63.65H196.18Q196.18 60.97 194.29 59.27Q192.4 57.56 189.73 57.56Q189.73 57.56 188.75 57.56Q187.78 57.56 187.78 57.56V56.34ZM215.17 56.34V57.56Q215.17 57.56 214.2 57.56Q213.22 57.56 213.22 57.56Q210.55 57.56 208.66 59.27Q206.77 60.97 206.77 63.65H206.53V56.34Z" fill="#F4F5FF"/><path d="M126.4 178.34C106.3 169.37 84.6 168.59 66 170.54V196.54C84.6 194.59 106.3 195.37 126.4 204.34Z" fill="#FFFFFF"/><path d="M129.6 178.34C149.7 169.37 171.4 168.59 190 170.54V196.54C171.4 194.59 149.7 195.37 129.6 204.34Z" fill="#FFFFFF"/></g><g transform="translate(51.2 9.71) scale(0.91)"><path d="M8.73 19.11Q6.24 19.11 4.26 17.94Q2.28 16.78 1.14 14.64Q0 12.5 0 9.57Q0 6.61 1.14 4.46Q2.28 2.32 4.26 1.16Q6.24 0 8.73 0Q11.22 0 13.19 1.16Q15.16 2.32 16.31 4.46Q17.45 6.61 17.45 9.57Q17.45 12.5 16.31 14.64Q15.16 16.79 13.19 17.95Q11.22 19.11 8.73 19.11ZM8.73 15.73Q10.15 15.73 11.26 15.01Q12.36 14.29 12.98 12.91Q13.6 11.53 13.6 9.57Q13.6 7.59 12.98 6.21Q12.36 4.82 11.26 4.1Q10.15 3.37 8.73 3.37Q7.3 3.37 6.2 4.1Q5.1 4.82 4.47 6.21Q3.85 7.59 3.85 9.57Q3.85 11.53 4.47 12.91Q5.1 14.29 6.2 15.01Q7.3 15.73 8.73 15.73ZM22.68 11.52V18.81H19.02V5.69H22.62V9.1H22Q22.63 7.36 23.78 6.39Q24.93 5.41 26.72 5.41Q28.12 5.41 29.15 6.02Q30.19 6.62 30.75 7.78Q31.32 8.93 31.32 10.59V18.81H27.67V11.26Q27.67 9.94 27.04 9.26Q26.41 8.57 25.25 8.57Q24.5 8.57 23.92 8.88Q23.34 9.2 23.01 9.85Q22.68 10.5 22.68 11.52ZM39.4 19.11Q37.41 19.11 35.93 18.23Q34.45 17.35 33.64 15.8Q32.83 14.25 32.83 12.26Q32.83 10.25 33.66 8.7Q34.48 7.15 35.93 6.27Q37.39 5.39 39.27 5.39Q40.72 5.39 41.9 5.88Q43.09 6.38 43.94 7.29Q44.8 8.2 45.26 9.44Q45.73 10.68 45.73 12.19V13.17H34.14V10.84H43.96L42.31 11.39Q42.31 10.4 41.95 9.68Q41.59 8.96 40.93 8.57Q40.27 8.18 39.35 8.18Q38.44 8.18 37.78 8.57Q37.12 8.96 36.76 9.68Q36.4 10.4 36.4 11.39V12.99Q36.4 14 36.76 14.76Q37.13 15.52 37.82 15.94Q38.52 16.36 39.5 16.36Q40.22 16.36 40.78 16.15Q41.33 15.94 41.71 15.57Q42.09 15.19 42.25 14.69H45.6Q45.35 15.99 44.48 16.98Q43.62 17.98 42.3 18.54Q40.99 19.11 39.4 19.11ZM58.75 18.81H53.97V15.59H58.55Q60.42 15.59 61.63 14.89Q62.85 14.19 63.45 12.84Q64.04 11.49 64.04 9.54Q64.04 7.59 63.45 6.25Q62.85 4.91 61.64 4.21Q60.43 3.52 58.58 3.52H53.88V0.3H58.82Q61.61 0.3 63.64 1.42Q65.68 2.55 66.78 4.62Q67.89 6.7 67.89 9.54Q67.89 12.39 66.78 14.47Q65.68 16.54 63.64 17.68Q61.59 18.81 58.75 18.81ZM56.04 0.3V18.81H52.22V0.3ZM75.55 19.11Q73.57 19.11 72.06 18.25Q70.56 17.39 69.72 15.85Q68.88 14.31 68.88 12.26Q68.88 10.2 69.72 8.66Q70.56 7.12 72.06 6.25Q73.57 5.39 75.55 5.39Q77.54 5.39 79.04 6.25Q80.54 7.12 81.37 8.66Q82.21 10.2 82.21 12.26Q82.21 14.31 81.37 15.85Q80.54 17.39 79.04 18.25Q77.54 19.11 75.55 19.11ZM75.55 16.13Q76.44 16.13 77.11 15.67Q77.78 15.21 78.15 14.34Q78.52 13.47 78.52 12.26Q78.52 11.03 78.15 10.16Q77.78 9.3 77.11 8.83Q76.44 8.36 75.55 8.36Q74.67 8.36 73.99 8.83Q73.32 9.29 72.95 10.16Q72.58 11.03 72.58 12.26Q72.58 13.48 72.95 14.34Q73.32 15.21 73.99 15.67Q74.66 16.13 75.55 16.13ZM87.38 0.3V18.81H83.72V0.3ZM93.12 0.3V18.81H89.46V0.3ZM99.21 19.03Q97.9 19.03 96.89 18.59Q95.87 18.16 95.28 17.29Q94.7 16.42 94.7 15.11Q94.7 13.99 95.11 13.26Q95.52 12.52 96.23 12.07Q96.94 11.62 97.87 11.38Q98.8 11.15 99.82 11.05Q101.02 10.93 101.73 10.82Q102.44 10.71 102.75 10.5Q103.06 10.28 103.06 9.86V9.78Q103.06 9.29 102.8 8.92Q102.54 8.56 102.06 8.35Q101.59 8.14 100.92 8.14Q100.24 8.14 99.72 8.35Q99.21 8.56 98.91 8.95Q98.61 9.33 98.56 9.84H95.12Q95.21 8.48 95.92 7.49Q96.64 6.5 97.93 5.96Q99.22 5.41 101.02 5.41Q102.37 5.41 103.42 5.72Q104.47 6.03 105.2 6.61Q105.92 7.2 106.3 8.03Q106.67 8.86 106.67 9.91V18.81H103.1V16.96H103.05Q102.71 17.6 102.19 18.06Q101.68 18.53 100.95 18.78Q100.22 19.03 99.21 19.03ZM100.22 16.49Q101.11 16.49 101.75 16.16Q102.39 15.84 102.74 15.28Q103.08 14.72 103.08 14.01V12.7Q102.93 12.78 102.66 12.86Q102.4 12.94 102.06 13.01Q101.71 13.08 101.3 13.15Q100.89 13.23 100.45 13.29Q99.82 13.39 99.31 13.59Q98.8 13.8 98.5 14.14Q98.2 14.48 98.2 15.01Q98.2 15.47 98.45 15.8Q98.7 16.14 99.16 16.31Q99.61 16.49 100.22 16.49ZM108.75 18.81V5.69H112.28V7.93H112.32Q112.68 6.74 113.45 6.17Q114.22 5.6 115.51 5.6Q115.84 5.6 116.11 5.61Q116.38 5.62 116.6 5.63V8.75Q116.4 8.73 115.94 8.71Q115.49 8.68 115.02 8.68Q114.28 8.68 113.68 9.02Q113.09 9.37 112.75 10.04Q112.41 10.71 112.41 11.7V18.81ZM130.34 19.11Q128.04 19.11 126.32 18.25Q124.61 17.4 123.67 15.88Q122.72 14.36 122.72 12.36V0.3H126.46V12.05Q126.46 13.14 126.94 13.98Q127.42 14.83 128.3 15.31Q129.17 15.8 130.35 15.8Q131.53 15.8 132.4 15.31Q133.27 14.83 133.74 13.99Q134.22 13.15 134.22 12.05V0.3H137.96V12.36Q137.96 14.36 137.02 15.88Q136.08 17.4 134.36 18.25Q132.65 19.11 130.34 19.11ZM143.74 11.52V18.81H140.09V5.69H143.68V9.1H143.06Q143.69 7.36 144.84 6.39Q145.99 5.41 147.78 5.41Q149.18 5.41 150.21 6.02Q151.25 6.62 151.82 7.78Q152.38 8.93 152.38 10.59V18.81H148.73V11.26Q148.73 9.94 148.1 9.26Q147.47 8.57 146.31 8.57Q145.56 8.57 144.98 8.88Q144.4 9.2 144.07 9.85Q143.74 10.5 143.74 11.52ZM154.47 18.81V5.69H158.13V18.81ZM156.29 4.04Q155.39 4.04 154.79 3.48Q154.2 2.93 154.2 2.09Q154.2 1.25 154.79 0.69Q155.39 0.14 156.29 0.14Q157.19 0.14 157.79 0.69Q158.38 1.25 158.38 2.09Q158.38 2.93 157.79 3.49Q157.19 4.04 156.29 4.04ZM163.93 18.81 159.06 5.69H162.9L165.07 12.17Q165.44 13.33 165.78 14.49Q166.12 15.65 166.45 16.8H165.58Q165.91 15.65 166.24 14.49Q166.57 13.33 166.93 12.17L169.06 5.69H172.86L167.99 18.81ZM179.32 19.11Q177.33 19.11 175.85 18.23Q174.37 17.35 173.56 15.8Q172.75 14.25 172.75 12.26Q172.75 10.25 173.58 8.7Q174.4 7.15 175.85 6.27Q177.31 5.39 179.19 5.39Q180.64 5.39 181.82 5.88Q183.01 6.38 183.86 7.29Q184.72 8.2 185.18 9.44Q185.65 10.68 185.65 12.19V13.17H174.06V10.84H183.88L182.23 11.39Q182.23 10.4 181.87 9.68Q181.51 8.96 180.85 8.57Q180.19 8.18 179.27 8.18Q178.36 8.18 177.7 8.57Q177.04 8.96 176.68 9.68Q176.31 10.4 176.31 11.39V12.99Q176.31 14 176.68 14.76Q177.05 15.52 177.74 15.94Q178.44 16.36 179.42 16.36Q180.14 16.36 180.7 16.15Q181.25 15.94 181.63 15.57Q182 15.19 182.17 14.69H185.52Q185.27 15.99 184.4 16.98Q183.53 17.98 182.22 18.54Q180.91 19.11 179.32 19.11ZM187.11 18.81V5.69H190.63V7.93H190.67Q191.03 6.74 191.8 6.17Q192.57 5.6 193.87 5.6Q194.19 5.6 194.46 5.61Q194.73 5.62 194.95 5.63V8.75Q194.75 8.73 194.3 8.71Q193.84 8.68 193.37 8.68Q192.63 8.68 192.03 9.02Q191.44 9.37 191.1 10.04Q190.76 10.71 190.76 11.7V18.81ZM201.53 19.13Q199.83 19.13 198.51 18.6Q197.18 18.08 196.38 17.08Q195.58 16.09 195.47 14.69H199.07Q199.17 15.54 199.79 16.02Q200.4 16.51 201.47 16.51Q202.49 16.51 203.07 16.12Q203.65 15.73 203.65 15.13Q203.65 14.61 203.21 14.29Q202.76 13.97 201.95 13.81L199.65 13.37Q197.75 12.99 196.76 12.03Q195.76 11.06 195.76 9.55Q195.76 8.3 196.44 7.37Q197.12 6.44 198.37 5.93Q199.62 5.41 201.32 5.41Q203.02 5.41 204.29 5.95Q205.56 6.5 206.28 7.49Q206.99 8.48 207.03 9.85H203.64Q203.63 9.06 203.01 8.54Q202.4 8.02 201.43 8.02Q200.48 8.02 199.95 8.42Q199.41 8.82 199.41 9.4Q199.41 9.91 199.83 10.24Q200.25 10.56 201 10.72L203.49 11.2Q205.48 11.59 206.42 12.47Q207.35 13.34 207.35 14.79Q207.35 16.11 206.62 17.08Q205.88 18.05 204.56 18.59Q203.25 19.13 201.53 19.13ZM208.81 18.81V5.69H212.46V18.81ZM210.63 4.04Q209.72 4.04 209.13 3.48Q208.54 2.93 208.54 2.09Q208.54 1.25 209.13 0.69Q209.72 0.14 210.62 0.14Q211.53 0.14 212.13 0.69Q212.72 1.25 212.72 2.09Q212.72 2.93 212.13 3.49Q211.53 4.04 210.63 4.04ZM222.27 5.69V8.56H213.66V5.69ZM215.93 2.11H219.58V14.76Q219.58 15.42 219.85 15.68Q220.12 15.93 220.86 15.93Q221.17 15.93 221.6 15.93Q222.03 15.93 222.27 15.93V18.81Q221.94 18.81 221.34 18.81Q220.74 18.81 220.14 18.81Q217.97 18.81 216.95 17.96Q215.93 17.11 215.93 15.33ZM224.53 24V21.1H226.2Q226.64 21.1 226.92 20.97Q227.19 20.83 227.39 20.52Q227.58 20.22 227.75 19.72L228.12 18.76L223.06 5.69H226.9L229.1 12.17Q229.48 13.32 229.82 14.48Q230.17 15.65 230.5 16.8H229.47Q229.79 15.65 230.13 14.48Q230.48 13.31 230.86 12.17L233.07 5.69H236.86L231.09 20.83Q230.67 21.92 230.1 22.63Q229.53 23.33 228.75 23.66Q227.97 24 226.95 24Q226.36 24 225.74 24Q225.13 24 224.53 24Z" fill="#12131A"/></g></svg>
