<svg xmlns="http://www.w3.org/2000/svg" viewBox="0 0 256 256" width="256" height="256"><mask id="odu-mono-s" maskUnits="userSpaceOnUse" x="0" y="0" width="256" height="256"><rect width="256" height="256" fill="#000000"/><circle cx="128" cy="128" r="126" fill="#FFFFFF"/><circle cx="128" cy="128" r="110" fill="none" stroke="#000000" stroke-width="14"/><path d="M115.64 79.38A16.12 16.12 0 1 0 99.51 104.1A16.12 16.12 0 1 1 83.39 128.82" fill="none" stroke="#000000" stroke-width="15.65" stroke-linecap="round" stroke-linejoin="round"/><path d="M99.51 54.65V62.17M99.51 146.02V153.55" fill="none" stroke="#000000" stroke-width="15.65" stroke-linecap="round" stroke-linejoin="round"/><path d="M138.21 71.85V119.15A17.2 17.2 0 0 0 172.61 119.15V71.85" fill="none" stroke="#000000" stroke-width="15.65" stroke-linecap="round" stroke-linejoin="round"/><path d="M126.4 178.34C106.3 169.37 84.6 168.59 66 170.54V196.54C84.6 194.59 106.3 195.37 126.4 204.34Z" fill="#000000"/><path d="M129.6 178.34C149.7 169.37 171.4 168.59 190 170.54V196.54C171.4 194.59 149.7 195.37 129.6 204.34Z" fill="#000000"/></mask><g><rect width="256" height="256" fill="#000000" mask="url(#odu-mono-s)"/></g></svg>
