<svg xmlns="http://www.w3.org/2000/svg" viewBox="0 0 256 256" width="256" height="256"><circle cx="128" cy="128" r="126" fill="#4F46E5"/><circle cx="128" cy="128" r="110" fill="none" stroke="#F5B82E" stroke-width="14"/><path d="M56.0 128.2L56.2 128.6L56.4 129.3L56.5 130.0L56.4 130.8L56.0 131.9L55.6 132.6L55.1 133.1L54.2 133.9L51.7 136.0L50.2 137.3L48.2 139.5L46.5 141.8L44.8 144.3L43.4 146.8L42.5 148.6L41.4 151.3L40.5 154.1L39.8 156.9L39.3 159.8L38.9 162.7L38.8 165.6L38.9 166.7L39.0 168.8L39.3 170.8L39.8 172.6L40.1 173.5L40.3 174.0L42.0 175.3L43.5 176.4L46.0 177.8L47.9 178.7L49.7 179.5L51.7 180.2L53.7 180.7L55.9 181.3L58.1 181.7L61.5 182.2L63.8 182.4L66.1 182.5L68.5 182.6L71.2 182.5L73.4 182.4L73.8 182.1L73.9 181.9L74.0 181.7L74.0 115.6L73.9 115.3L70.7 110.7L69.9 109.2L69.2 107.6L68.6 105.9L68.2 104.3L67.9 102.6L67.9 101.0L68.0 99.1L68.3 97.3L68.7 95.4L69.4 93.6L70.2 91.9L71.1 90.2L72.2 88.5L73.9 86.4L74.0 86.1L74.0 55.1L76.2 45.6L76.3 45.9L76.5 46.1L76.7 46.4L76.9 46.6L77.0 47.0L77.3 47.2L77.4 47.5L77.7 47.7L77.8 48.0L78.0 48.2L78.1 48.5L78.4 48.8L78.5 49.1L78.8 49.3L78.9 49.6L79.1 49.8L79.3 50.1L79.5 50.4L79.6 50.7L79.9 50.9L80.0 51.2L80.3 51.4L80.4 51.7L80.6 52.0L80.8 52.3L81.0 52.5L81.1 52.8L81.4 53.0L81.5 53.3L81.8 53.6L83.9 63.1L83.9 77.1L84.0 77.4L84.2 77.7L84.7 77.8L85.0 77.7L85.4 77.4L85.6 77.0L85.6 55.1L87.8 45.6L87.9 45.8L88.2 46.1L88.3 46.4L88.5 46.6L88.6 47.0L88.9 47.2L89.0 47.5L89.3 47.7L89.4 48.0L89.6 48.2L89.8 48.5L90.0 48.8L90.1 49.1L90.4 49.3L90.5 49.6L90.8 49.8L90.9 50.1L91.1 50.4L91.3 50.7L91.5 50.9L91.6 51.2L91.9 51.4L92.0 51.7L92.2 52.0L92.4 52.3L92.6 52.5L92.7 52.8L93.0 53.0L93.1 53.3L93.4 53.6L95.5 63.1L95.5 72.9L95.6 73.2L95.9 73.5L96.1 73.6L96.4 73.6L98.7 73.1L101.7 72.5L103.9 72.1L107.0 71.7L111.2 71.3L115.4 71.2L117.9 71.3L120.4 71.4L124.5 71.8L126.8 72.2L128.4 72.6L129.9 73.0L131.4 73.5L133.6 74.4L134.9 75.1L136.5 76.0L137.8 76.9L138.6 77.5L140.4 79.2L141.5 80.6L147.6 89.3L148.8 91.2L149.4 92.7L149.9 94.3L150.3 95.9L150.4 97.4L150.4 99.3L150.1 101.2L149.7 102.5L149.3 103.5L148.9 104.5L147.8 106.2L147.0 107.2L145.5 108.8L143.9 110.1L141.9 111.5L140.0 112.5L137.9 113.4L135.0 114.4L133.7 114.6L132.2 114.6L131.0 114.3L130.4 114.1L129.9 113.8L129.2 113.3L128.8 112.8L123.1 104.7L122.6 103.7L122.4 102.7L122.4 102.1L122.5 101.6L122.8 100.6L123.5 99.6L124.4 98.7L125.4 98.0L126.5 97.6L127.5 97.4L129.5 97.0L130.6 96.7L131.6 96.1L132.4 95.3L132.7 94.7L133.1 93.9L133.3 93.1L133.3 92.3L133.2 92.1L133.0 91.9L131.3 91.0L129.2 90.3L127.6 89.9L125.8 89.6L123.9 89.5L121.8 89.4L119.3 89.5L116.5 89.8L113.6 90.3L110.4 90.9L108.0 91.6L105.4 92.4L102.5 93.4L100.5 94.2L98.7 95.2L96.3 96.7L95.8 97.1L95.6 97.4L95.5 97.7L95.5 110.5L95.6 110.8L95.7 111.0L96.1 111.3L99.2 112.9L113.4 119.4L117.8 121.7L121.1 123.5L124.1 125.5L126.4 127.2L128.3 128.9L130.1 130.6L131.6 132.5L137.9 141.4L139.1 143.3L140.0 145.1L140.4 146.2L140.8 147.2L141.3 149.0L141.6 150.2L141.9 152.0L142.0 154.2L142.0 155.4L141.7 157.6L141.2 160.1L140.6 162.3L140.2 163.4L139.7 164.7L138.6 166.8L137.9 168.1L136.6 170.2L134.3 173.3L131.8 176.4L128.9 179.4L126.9 181.2L124.8 183.0L121.5 185.6L119.4 187.2L117.0 188.7L113.2 191.0L110.2 192.6L107.2 194.0L105.6 194.7L100.7 196.4L96.0 197.8L95.7 198.1L95.5 198.5L95.5 216.7L93.4 226.3L93.3 226.0L93.0 225.8L92.9 225.4L92.6 225.2L92.5 224.9L92.3 224.7L92.1 224.4L91.9 224.2L91.8 223.8L91.5 223.6L91.4 223.3L91.1 223.1L91.0 222.8L90.8 222.6L90.6 222.3L90.4 222.0L90.3 221.7L90.0 221.5L89.9 221.2L89.6 221.0L89.5 220.7L89.3 220.4L89.1 220.1L88.9 219.9L88.8 219.6L88.5 219.4L88.4 219.1L88.2 218.8L88.0 218.5L87.8 218.3L85.6 208.8L85.6 200.7L85.5 200.4L85.3 200.1L84.9 200.0L84.4 200.1L84.1 200.3L83.9 200.7L83.9 216.7L81.8 226.3L81.7 226.0L81.4 225.8L81.3 225.4L81.0 225.2L80.9 224.9L80.6 224.7L80.5 224.4L80.3 224.2L80.1 223.8L79.9 223.6L79.8 223.3L79.5 223.1L79.4 222.8L79.1 222.6L79.0 222.3L78.8 222.0L78.6 221.7L78.4 221.5L78.3 221.2L78.0 221.0L77.9 220.7L77.7 220.4L77.5 220.1L77.3 219.9L77.2 219.6L76.9 219.4L76.8 219.1L76.5 218.8L76.4 218.5L76.2 218.3L74.0 208.8L74.0 201.4L73.9 201.1L73.8 200.8L73.5 200.7L73.3 200.6L70.0 200.5L68.0 200.4L63.8 200.0L59.8 199.3L56.0 198.5L52.4 197.4L50.5 196.8L47.0 195.4L43.7 193.8L40.6 192.0L37.7 189.9L36.2 188.7L33.6 186.3L32.6 185.1L31.4 183.8L30.4 182.4L24.7 174.2L23.8 172.9L22.8 171.2L22.1 169.7L21.5 168.2L20.8 166.4L20.3 164.6L19.9 162.9L19.5 161.1L19.3 159.4L19.1 157.4L19.1 155.8L19.2 154.1L19.4 152.3L19.7 150.5L20.2 148.6L20.7 146.7L21.7 144.0L22.4 142.1L23.6 139.5L24.6 137.6L26.1 135.0L27.3 133.1L29.0 130.6L30.4 129.0L32.4 126.7L34.0 125.2L36.2 123.2L37.9 121.9L39.5 120.8L41.2 119.9L43.4 118.8L44.6 118.4L46.3 118.2L47.5 118.3L48.6 118.6L49.1 118.8L49.6 119.2L50.0 119.6ZM95.5 133.9L95.5 176.0L95.6 176.3L95.7 176.5L96.0 176.7L96.3 176.7L96.6 176.7L98.6 175.7L101.8 173.8L103.3 172.9L106.1 170.9L107.5 169.8L109.9 167.7L111.0 166.5L113.1 164.1L115.0 161.7L115.8 160.4L117.1 158.0L118.2 155.6L118.6 154.4L119.2 152.1L119.5 149.8L119.5 148.1L119.4 147.0L119.3 145.8L119.0 144.7L118.8 144.3L117.3 143.1L115.1 141.7L112.6 140.3L108.3 138.2L105.3 136.9L96.6 133.2L96.2 133.1L95.9 133.2L95.6 133.5ZM83.9 127.9L83.9 179.9L84.0 180.2L84.1 180.5L84.4 180.6L84.7 180.7L85.1 180.6L85.4 180.5L85.6 180.2L85.6 179.9L85.6 128.0L85.6 127.7L85.4 127.5L85.0 127.2L84.7 127.2L84.4 127.2L84.2 127.3L84.0 127.6Z" fill="#120E26"/><path d="M42.1 115.9L43.2 115.6L44.3 115.4L45.7 115.2L46.7 115.2L47.5 115.3L48.5 115.5L49.4 115.8L50.3 116.3L51.1 117.0L51.7 117.7L52.2 118.4L52.6 119.3L52.9 120.2L53.0 121.1L53.0 122.0L52.8 123.0L52.5 124.0L51.9 125.0L51.4 125.8L50.2 127.0L47.4 129.3L46.0 130.6L44.2 132.6L42.5 134.7L41.0 137.0L39.6 139.4L38.8 141.1L37.8 143.6L36.9 146.3L36.4 148.1L36.0 149.9L35.6 152.6L35.5 154.4L35.4 156.2L35.4 159.1L35.6 160.9L36.2 163.4L37.0 165.5L37.7 166.9L39.1 168.8L40.7 170.6L41.8 171.7L43.8 173.3L45.2 174.2L47.6 175.5L49.4 176.3L52.1 177.3L54.0 177.8L56.1 178.3L59.2 178.9L62.5 179.3L64.7 179.5L68.1 179.6L71.1 179.5L71.1 115.3L69.9 113.9L68.7 112.1L67.7 110.4L66.5 108.0L65.9 106.2L65.4 104.2L65.1 102.4L65.0 100.4L65.1 98.3L65.5 96.3L65.9 94.3L66.6 92.3L67.5 90.4L68.6 88.5L69.8 86.6L71.1 84.8L71.2 54.3L73.4 44.5L73.5 44.0L73.8 43.6L74.1 43.2L74.7 42.8L75.4 42.6L75.9 42.6L76.6 42.7L77.1 42.9L77.5 43.2L77.9 43.8L78.2 44.5L80.4 54.0L80.4 54.6L80.4 76.8L82.8 75.4L82.8 54.6L82.8 54.0L85.0 44.5L85.1 44.0L85.5 43.4L86.1 42.9L86.8 42.6L87.5 42.6L88.3 42.7L88.9 43.1L89.4 43.6L89.8 44.3L92.0 54.3L92.1 71.6L96.7 70.4L100.9 69.5L105.3 68.8L109.7 68.4L113.9 68.2L118.5 68.3L122.8 68.6L125.2 69.0L127.0 69.3L128.6 69.7L130.3 70.1L132.7 71.0L135.7 72.4L137.3 73.3L138.3 73.9L139.6 75.0L140.5 75.7L141.8 76.9L142.4 77.7L143.2 78.6L144.1 80.0L144.7 81.0L145.4 82.4L146.1 84.3L146.7 86.7L146.9 88.8L146.9 90.7L146.8 92.0L146.5 93.2L146.1 94.8L145.3 96.8L144.4 98.3L143.1 100.1L141.4 101.9L140.1 103.1L138.0 104.6L135.6 106.0L133.3 107.0L130.7 107.9L129.4 108.3L128.6 108.5L127.0 108.6L125.3 108.4L124.0 108.1L123.4 107.8L122.6 107.4L122.1 107.0L121.5 106.5L120.7 105.5L120.2 104.7L120.0 104.1L119.6 102.8L119.6 101.3L119.7 100.5L119.9 99.7L120.2 98.9L120.7 98.1L121.2 97.5L121.8 96.8L122.5 96.2L123.2 95.7L124.7 95.0L126.1 94.5L128.6 94.1L129.4 93.8L129.8 93.6L130.0 93.3L130.2 92.9L130.4 92.5L130.5 91.6L130.4 90.5L129.9 89.4L129.1 88.2L128.4 87.3L127.3 86.5L126.0 85.6L124.9 85.0L123.2 84.3L121.9 84.0L119.6 83.6L117.8 83.4L115.9 83.4L114.1 83.4L111.6 83.7L109.5 83.9L106.6 84.5L104.3 85.0L101.9 85.7L99.3 86.5L97.4 87.2L95.6 88.0L94.0 88.8L92.1 90.0L92.1 105.8L95.4 107.8L99.2 109.7L114.1 116.6L118.6 118.9L121.2 120.4L124.1 122.2L126.4 123.9L128.7 125.7L130.5 127.3L131.4 128.3L133.1 130.3L134.7 132.6L135.7 134.4L136.2 135.5L137.2 137.9L137.8 139.8L138.0 141.0L138.4 143.5L138.5 145.5L138.5 146.8L138.2 149.7L137.7 152.0L137.4 153.3L136.5 156.0L135.5 158.2L134.8 159.5L134.1 160.8L132.7 163.0L130.3 166.3L127.7 169.5L124.7 172.6L121.5 175.5L119.3 177.3L117.1 179.0L114.8 180.7L112.4 182.3L108.5 184.6L105.3 186.3L102.3 187.7L100.6 188.4L97.1 189.7L92.1 191.3L92.0 208.5L89.8 218.6L89.6 219.0L89.3 219.4L88.9 219.7L88.5 220.0L88.0 220.2L87.5 220.2L87.0 220.2L86.6 220.1L86.1 219.9L85.7 219.6L85.4 219.2L85.1 218.8L85.0 218.3L82.8 208.8L82.8 208.2L82.8 193.4L80.4 193.7L80.4 208.5L78.1 218.6L77.9 219.0L77.6 219.4L77.3 219.7L76.9 220.0L76.4 220.2L75.9 220.2L75.2 220.2L74.7 220.0L74.1 219.6L73.8 219.2L73.4 218.6L71.2 208.5L71.1 194.5L66.1 194.6L61.8 194.4L57.6 193.9L53.5 193.3L49.4 192.3L45.5 191.2L41.7 189.9L38.3 188.4L36.5 187.5L34.9 186.5L31.7 184.5L30.2 183.3L28.8 182.2L27.2 180.8L25.9 179.5L24.6 178.1L23.5 176.8L22.4 175.3L21.2 173.5L20.3 171.9L19.5 170.2L18.7 168.4L18.1 166.8L17.6 164.9L17.1 163.1L16.7 161.1L16.5 159.2L16.3 156.0L16.3 154.3L16.4 152.4L16.9 149.3L17.4 147.4L17.9 145.5L18.6 143.6L19.3 141.6L20.2 139.7L21.5 136.9L23.6 133.1L24.8 131.3L26.0 129.5L27.4 127.7L28.8 126.1L30.3 124.5L31.8 122.9L34.4 120.7L36.1 119.4L37.8 118.3L39.6 117.2ZM92.1 128.0L92.1 175.2L95.1 173.9L97.1 172.9L98.7 172.1L101.6 170.3L102.9 169.4L105.5 167.4L107.8 165.3L109.9 163.2L110.8 162.0L112.6 159.7L114.0 157.4L115.1 155.2L115.5 154.2L116.2 152.1L116.5 150.1L116.7 148.1L116.6 146.7L116.3 145.3L115.9 143.9L115.4 142.5L114.7 141.2L113.8 140.0L112.7 138.8L111.7 138.0L110.4 136.9L108.9 135.9L107.3 135.0L105.5 134.0L99.9 131.3ZM80.4 122.5L80.4 178.4L82.8 178.0L82.8 123.8Z" fill="#120E26"/><path d="M73.6 85.8L73.6 54.6L75.8 45.0L78.0 54.6L78.0 81.6L79.8 80.2L81.6 78.9L83.5 77.8L85.2 76.9L85.2 54.6L87.4 45.0L89.6 54.6L89.6 75.0L93.4 73.8L96.3 73.0L98.3 72.5L101.3 71.9L103.5 71.6L106.6 71.2L108.8 71.0L111.9 70.8L113.9 70.7L118.4 70.8L120.9 70.9L123.3 71.2L125.7 71.6L127.3 71.9L129.5 72.5L131.0 73.0L132.5 73.6L134.4 74.5L136.0 75.4L136.9 76.0L138.2 77.0L139.4 78.0L140.5 79.3L141.2 80.1L142.1 81.4L142.9 82.8L143.5 84.3L143.9 85.6L144.3 87.2L144.4 88.1L144.5 89.5L144.4 90.8L144.1 92.7L143.7 94.0L143.0 95.8L142.4 96.9L141.2 98.5L140.3 99.5L138.8 101.0L137.7 101.8L135.9 102.9L134.0 104.0L131.9 104.9L130.0 105.6L128.5 106.0L127.1 106.1L126.0 106.0L124.8 105.8L123.9 105.3L123.0 104.5L122.4 103.6L122.3 103.2L122.1 102.5L122.0 101.5L122.1 101.0L122.4 100.1L122.8 99.4L123.3 98.8L124.0 98.1L124.9 97.6L125.8 97.2L126.6 96.9L128.7 96.6L129.5 96.4L130.5 96.0L131.2 95.6L132.0 94.7L132.6 93.7L132.9 92.6L133.0 91.3L132.9 90.5L132.7 89.8L132.3 88.7L131.7 87.5L130.8 86.3L129.7 85.2L128.8 84.5L127.2 83.4L126.0 82.8L124.0 82.0L122.5 81.6L119.9 81.1L118.0 81.0L115.9 80.9L113.3 81.0L110.6 81.3L108.4 81.6L105.3 82.2L102.8 82.8L99.4 83.9L96.6 84.9L94.6 85.7L92.8 86.6L91.1 87.7L89.6 88.8L89.6 107.1L90.7 107.9L92.8 109.1L97.3 111.5L100.6 113.1L113.1 118.9L117.4 121.1L119.9 122.5L122.7 124.3L124.9 125.8L126.9 127.4L128.9 129.2L130.5 131.0L131.9 132.9L133.0 134.7L133.6 135.7L134.4 137.5L134.8 138.5L135.4 140.6L135.8 142.5L135.9 143.5L136.0 145.7L136.0 146.9L135.8 149.1L135.5 150.4L135.0 152.6L134.2 155.0L133.2 157.2L132.6 158.4L130.6 161.7L128.3 164.9L125.8 167.9L123.9 169.9L122.0 171.7L118.8 174.5L116.7 176.2L114.5 177.8L111.0 180.2L107.2 182.5L105.7 183.3L102.8 184.8L99.6 186.2L96.4 187.4L94.7 188.0L89.6 189.4L89.6 208.2L87.4 217.8L85.2 208.2L85.2 190.4L80.8 191.2L78.0 191.6L78.0 208.2L75.8 217.8L73.6 208.2L73.6 192.0L68.3 192.1L64.0 192.0L60.0 191.7L57.9 191.5L53.9 190.8L50.1 190.0L48.2 189.5L44.5 188.2L41.0 186.9L39.3 186.1L36.0 184.3L33.1 182.4L31.7 181.4L29.0 179.1L27.7 177.8L26.5 176.5L25.3 175.1L24.3 173.7L23.3 172.2L22.5 170.7L21.7 169.1L21.0 167.5L20.5 166.0L20.0 164.3L19.5 162.5L19.2 160.7L18.9 158.7L18.8 156.9L18.7 155.3L18.9 152.6L19.2 150.8L19.5 149.1L20.0 147.2L20.6 145.4L22.0 141.7L23.7 138.0L25.8 134.4L26.9 132.7L28.0 131.0L29.3 129.3L30.6 127.7L32.0 126.2L33.5 124.7L35.9 122.6L37.4 121.5L39.1 120.4L41.7 118.9L42.9 118.3L43.8 118.0L45.1 117.8L46.3 117.7L47.4 117.8L48.2 118.0L48.9 118.4L49.4 118.8L49.9 119.4L50.2 120.1L50.5 120.8L50.5 121.5L50.4 122.3L50.1 123.2L49.6 124.1L48.8 124.9L45.8 127.5L43.6 129.5L42.3 131.0L40.5 133.3L38.3 136.6L37.0 139.2L36.1 141.0L35.4 142.8L34.5 145.6L33.8 148.4L33.3 151.3L33.0 154.2L32.9 157.1L33.0 159.3L33.2 161.3L33.6 163.2L33.8 164.1L34.4 165.8L35.2 167.4L36.6 169.6L38.3 171.7L39.5 173.0L41.6 174.8L43.2 175.8L45.7 177.3L48.4 178.6L51.3 179.6L53.4 180.2L56.6 181.0L60.0 181.5L63.4 181.9L66.9 182.0L70.8 182.0L73.6 181.8L73.6 114.3L72.0 112.5L70.8 111.0L69.9 109.4L69.1 107.7L68.2 105.5L67.8 103.9L67.6 102.1L67.5 100.5L67.6 98.6L67.9 96.7L68.3 94.9L69.0 93.1L69.8 91.4L70.7 89.7L71.8 88.0ZM78.0 118.0L78.0 181.3L81.4 180.8L85.2 179.9L85.2 122.2L83.5 121.4L81.4 120.2L79.4 118.9ZM84.9 102.1L85.2 102.8L85.2 93.4L84.6 94.6L84.3 95.2L84.0 96.4L83.8 97.7L83.8 98.6L83.9 99.7L84.3 100.9ZM89.6 124.2L89.6 178.7L92.7 177.6L96.1 176.2L98.3 175.1L101.5 173.3L102.9 172.4L105.8 170.4L108.3 168.2L110.6 166.0L111.7 164.8L113.7 162.4L115.4 159.9L116.8 157.4L117.8 155.1L118.6 152.7L119.0 150.4L119.1 148.1L119.0 146.4L118.8 144.7L118.3 143.1L117.6 141.4L116.8 139.9L115.7 138.4L114.4 137.0L113.3 136.1L111.8 134.9L110.3 133.8L107.9 132.5L106.0 131.4L100.1 128.7Z" fill="#F5B82E"/><path d="M153.5 91.0L153.5 88.5L165.2 88.8L175.7 88.9L186.2 88.8L198.2 88.5L198.3 88.8L198.6 89.0L198.7 89.4L199.0 89.6L199.1 89.9L199.3 90.1L199.5 90.4L199.7 90.6L199.9 91.0L200.1 91.2L200.2 91.5L200.5 91.7L200.6 92.0L200.8 92.2L201.0 92.5L201.2 92.7L201.3 93.1L201.6 93.3L201.7 93.6L201.9 93.8L202.1 94.1L202.3 94.3L202.5 94.7L202.7 94.9L202.8 95.2L203.1 95.4L203.2 95.7L203.4 95.9L203.6 96.3L203.8 96.5L203.8 99.0L201.2 99.2L199.5 99.4L197.7 99.8L196.6 100.3L196.0 100.6L195.5 101.1L194.8 102.0L194.4 103.0L193.9 104.7L193.7 107.0L193.6 109.8L193.6 162.2L193.7 165.1L194.1 168.6L194.6 171.6L194.9 172.8L195.1 173.1L195.9 173.5L196.9 173.9L198.4 174.4L199.5 174.6L201.9 174.9L203.1 175.0L205.1 175.0L207.7 174.8L209.0 174.6L211.3 174.0L213.4 173.2L215.3 172.2L216.2 171.6L217.7 170.2L219.2 168.7L220.5 166.9L221.6 165.0L222.6 162.9L223.4 160.7L224.1 158.2L224.7 155.6L225.1 152.9L225.5 150.1L225.7 147.1L225.8 144.0L225.8 111.8L225.6 105.7L225.4 102.8L225.2 100.9L225.0 100.6L224.8 100.4L223.1 99.8L221.5 99.4L218.7 99.0L218.6 98.7L218.3 98.5L218.1 98.1L217.9 97.9L217.8 97.6L217.6 97.4L217.4 97.1L217.2 96.9L217.1 96.5L216.8 96.3L216.7 96.0L216.4 95.8L216.3 95.5L216.1 95.3L215.9 95.0L215.7 94.7L215.6 94.4L215.3 94.2L215.2 93.9L214.9 93.7L214.8 93.4L214.6 93.1L214.4 92.8L214.2 92.6L214.1 92.3L213.8 92.1L213.7 91.8L213.5 91.5L213.3 91.2L213.1 91.0L213.1 88.5L221.0 88.8L227.2 88.9L232.0 88.8L237.6 88.5L237.7 88.7L238.0 89.0L238.2 89.4L238.4 89.6L238.5 89.9L238.8 90.1L238.9 90.4L239.1 90.6L239.3 90.9L239.5 91.2L239.6 91.5L239.9 91.7L240.0 92.0L240.2 92.2L240.4 92.5L240.6 92.7L240.8 93.1L241.0 93.3L241.1 93.6L241.4 93.8L241.5 94.1L241.7 94.3L241.9 94.7L242.1 94.9L242.2 95.2L242.5 95.4L242.6 95.7L242.9 95.9L243.0 96.3L243.2 96.5L243.2 99.0L241.5 99.4L239.9 100.0L238.6 100.8L237.8 101.3L236.9 102.3L236.1 103.6L235.7 104.6L235.2 106.2L234.9 107.5L234.6 109.7L234.4 114.2L234.3 118.6L234.3 151.6L234.2 154.1L233.9 157.8L233.4 162.6L232.8 166.0L232.0 169.2L231.3 171.2L230.1 174.0L229.1 175.7L228.6 176.6L227.3 178.3L225.8 179.8L224.2 181.2L222.4 182.5L221.4 183.1L219.4 184.3L217.1 185.2L215.9 185.6L213.2 186.3L210.3 186.9L208.8 187.1L205.5 187.3L201.1 187.4L197.1 187.2L193.0 186.7L188.8 185.9L185.7 185.1L183.7 184.3L181.0 183.0L178.4 181.4L177.0 180.3L175.7 179.1L174.1 177.2L167.5 167.9L166.2 165.7L165.5 164.1L164.6 161.6L163.9 159.0L163.3 156.1L163.1 154.1L162.8 150.9L162.6 147.5L162.5 143.9L162.5 101.8L162.4 99.8L162.2 99.4L161.8 99.2L159.1 99.0L159.0 98.7L158.7 98.5L158.6 98.1L158.4 97.9L158.2 97.6L158.0 97.4L157.9 97.1L157.6 96.9L157.5 96.5L157.2 96.3L157.1 96.0L156.9 95.8L156.7 95.5L156.5 95.3L156.4 95.0L156.1 94.7L156.0 94.4L155.7 94.2L155.6 93.9L155.4 93.7L155.2 93.4L155.0 93.1L154.9 92.8L154.6 92.6L154.5 92.3L154.3 92.1L154.1 91.8L153.9 91.5L153.8 91.2Z" fill="#120E26"/><path d="M239.7 90.5L239.6 91.2L239.5 91.6L239.0 92.2L238.7 92.5L238.0 92.8L236.2 93.3L235.0 93.8L234.0 94.3L233.3 94.9L232.7 95.6L232.2 96.5L231.7 97.8L231.5 98.8L231.3 100.0L231.1 102.2L230.8 106.8L230.8 141.8L230.6 147.0L230.2 152.0L229.7 155.6L229.3 158.0L228.4 161.3L227.7 163.5L226.8 165.6L225.8 167.6L224.6 169.5L223.2 171.4L222.4 172.3L220.8 173.8L218.8 175.4L217.8 176.1L215.7 177.4L213.2 178.5L210.6 179.5L207.7 180.2L206.2 180.5L203.1 181.0L199.7 181.3L195.1 181.4L190.9 181.1L188.8 180.9L185.6 180.5L183.4 180.1L181.2 179.6L177.9 178.5L176.8 178.1L174.8 177.2L172.9 176.1L171.9 175.5L170.9 174.8L169.5 173.7L167.4 171.7L166.1 170.2L164.6 168.0L163.6 166.2L162.5 163.7L161.6 161.0L160.9 158.0L160.4 154.9L159.9 149.4L159.6 143.4L159.6 100.6L159.5 98.0L159.2 95.7L159.0 94.9L158.8 94.4L158.4 94.0L157.9 93.7L157.2 93.4L156.1 93.2L152.6 92.9L151.9 92.6L151.5 92.4L151.2 92.0L150.8 91.4L150.7 90.7L150.7 88.0L150.7 87.5L150.9 87.0L151.2 86.4L151.6 86.0L152.0 85.7L152.5 85.6L153.0 85.5L164.8 85.8L175.3 85.9L185.8 85.8L197.8 85.5L198.5 85.6L199.2 85.9L199.6 86.2L200.0 86.8L200.2 87.2L200.3 87.7L200.3 90.7L200.2 91.2L200.0 91.6L199.6 92.2L199.1 92.6L198.4 92.9L194.4 93.2L192.8 93.6L191.8 93.9L191.3 94.3L190.9 94.9L190.6 95.8L190.4 97.0L190.2 99.2L190.1 101.3L190.2 154.6L190.2 156.4L190.5 158.9L190.7 160.5L191.1 162.5L191.4 163.7L192.0 165.4L192.6 166.8L193.3 168.0L193.8 168.6L194.7 169.5L195.6 170.2L196.6 170.8L197.8 171.2L199.1 171.6L200.6 171.8L202.2 172.0L204.7 172.0L207.0 171.8L208.1 171.6L210.2 171.1L212.0 170.4L213.6 169.5L215.0 168.5L216.3 167.2L217.5 165.8L218.6 164.2L219.5 162.4L220.3 160.4L221.0 158.3L221.6 155.9L222.3 152.0L222.6 149.3L222.8 146.4L222.9 143.4L222.9 111.3L222.9 107.5L222.7 104.3L222.5 101.6L222.2 99.5L221.7 97.9L221.1 96.6L220.4 95.7L219.6 95.0L218.3 94.3L216.5 93.7L215.0 93.4L211.9 92.8L211.3 92.5L210.9 92.2L210.5 91.6L210.3 91.2L210.2 90.7L210.2 87.7L210.4 87.0L210.8 86.3L211.2 86.0L211.8 85.6L212.6 85.5L220.7 85.8L226.8 85.9L231.0 85.8L237.6 85.5L238.3 85.7L238.7 85.9L239.2 86.4L239.6 87.0L239.7 87.7Z" fill="#120E26"/><path d="M237.3 90.5L235.5 90.9L233.9 91.5L232.6 92.2L231.5 93.1L230.6 94.2L229.9 95.5L229.5 96.6L229.1 98.3L228.9 99.7L228.6 102.0L228.4 106.7L228.3 141.8L228.1 146.8L227.7 151.7L227.3 155.2L226.8 157.5L226.3 159.6L225.7 161.7L225.0 163.6L223.7 166.3L222.6 168.1L221.3 169.7L219.9 171.3L219.1 172.0L217.4 173.4L215.5 174.6L214.5 175.2L212.3 176.2L209.9 177.1L207.2 177.8L204.4 178.3L201.2 178.7L199.6 178.8L195.1 178.9L191.1 178.7L187.0 178.2L182.8 177.4L179.7 176.5L176.8 175.4L174.1 174.0L172.4 172.8L171.7 172.3L169.8 170.6L168.1 168.7L166.7 166.6L165.9 165.2L164.8 162.8L164.0 160.2L163.3 157.5L162.8 154.6L162.4 150.4L162.1 144.6L162.1 140.9L162.1 100.5L161.9 97.3L161.8 96.2L161.6 94.8L161.2 93.7L160.7 92.8L160.1 92.1L159.2 91.6L158.2 91.2L157.0 90.9L155.5 90.6L153.1 90.5L153.1 88.0L164.8 88.2L175.3 88.3L185.9 88.2L197.8 88.0L197.8 90.5L195.2 90.6L193.6 90.9L192.6 91.1L191.0 91.6L190.4 91.9L189.8 92.3L189.1 93.1L188.5 94.1L188.2 95.2L187.9 96.7L187.7 99.1L187.6 101.3L187.6 152.7L187.8 156.6L188.0 159.2L188.2 160.9L188.5 162.4L189.0 164.4L189.7 166.3L190.2 167.4L191.0 168.9L191.9 170.2L193.0 171.3L193.8 172.0L194.7 172.5L196.0 173.2L197.5 173.7L199.2 174.1L200.9 174.4L202.7 174.5L204.8 174.5L207.4 174.2L209.8 173.8L212.0 173.1L214.0 172.2L214.9 171.6L216.6 170.4L218.1 168.9L219.5 167.3L220.7 165.5L221.8 163.5L222.7 161.3L223.4 158.9L224.0 156.4L224.5 153.8L224.9 151.0L225.3 146.6L225.4 143.5L225.4 111.3L225.4 107.5L225.2 104.1L224.9 101.3L224.6 99.0L224.1 97.0L223.6 95.9L223.3 95.4L222.6 94.4L221.8 93.6L221.4 93.2L220.4 92.6L218.6 91.8L216.4 91.1L214.6 90.8L212.7 90.5L212.7 88.0L220.6 88.2L226.8 88.3L231.6 88.2L237.3 88.0Z" fill="#F4F5FF"/></svg>
