<svg xmlns="http://www.w3.org/2000/svg" viewBox="0 0 800 800">
  <defs>
    <radialGradient id="nickelb-metal" cx="0.38" cy="0.32" r="0.75">
      <stop offset="0" stop-color="#f1f5f9"/>
      <stop offset="1" stop-color="#cbd5e1"/>
    </radialGradient>
    <clipPath id="nickelb-field"><circle cx="0" cy="0" r="100"/></clipPath>
    <path id="nickelb-t5" d="M0 76 A76 76 0 1 1 0 -76 A76 76 0 1 1 0 76"/>
    <path id="nickelb-t6" d="M0 -88 A88 88 0 1 0 0 88 A88 88 0 1 0 0 -88"/>
  </defs>
  <circle cx="410" cy="412" r="297.3" fill="#1f2937" opacity="0.12"/>
  <circle cx="400" cy="400" r="297.3" fill="url(#nickelb-metal)" stroke="#1f2937" stroke-width="6"/>
  <circle cx="400" cy="400" r="261.6" fill="none" stroke="#94a3b8" stroke-width="5"/>
  <path d="M156.7 305.8 A261.6 261.6 0 0 1 305.8 156.7" fill="none" stroke="#ffffff" stroke-width="6" stroke-linecap="round" opacity="0.6"/>
  <g transform="translate(400 400) scale(2.6158)">
    <g transform="translate(0 -2) scale(0.86)">
    <path d="M-22 -18 A22 22 0 0 1 22 -18 Z" fill="#e2e8f0" stroke="#1f2937" stroke-width="1.53" stroke-linejoin="round" stroke-linecap="round"/>
    <path d="M-26 -18 L26 -18 L26 -10 L-26 -10 Z" fill="#e2e8f0" stroke="#1f2937" stroke-width="1.15" stroke-linejoin="round" stroke-linecap="round"/>
    <path d="M-74 -4 L74 -4 L74 30 L-74 30 Z" fill="#e2e8f0" stroke="#1f2937" stroke-width="1.53" stroke-linejoin="round" stroke-linecap="round"/>
    <path d="M-78 -8 L78 -8 L78 -2 L-78 -2 Z" fill="#f1f5f9" stroke="#1f2937" stroke-width="1.15" stroke-linejoin="round" stroke-linecap="round"/>
    <path d="M-30 -10 L0 -34 L30 -10 Z" fill="#f1f5f9" stroke="#1f2937" stroke-width="1.53" stroke-linejoin="round" stroke-linecap="round"/>
    <path d="M-12 -14 A12 8 0 0 1 12 -14 Z" fill="#94a3b8" stroke="#1f2937" stroke-width="0.96" stroke-linejoin="round" stroke-linecap="round"/>
    <path d="M-30 -10 L30 -10 L30 30 L-30 30 Z" fill="#e2e8f0" stroke="#1f2937" stroke-width="1.53" stroke-linejoin="round" stroke-linecap="round"/>
    <path d="M-24 -6 L-18 -6 L-18 30 L-24 30 Z" fill="#f1f5f9" stroke="#1f2937" stroke-width="0.96" stroke-linejoin="round" stroke-linecap="round"/>
    <path d="M-10 -6 L-4 -6 L-4 30 L-10 30 Z" fill="#f1f5f9" stroke="#1f2937" stroke-width="0.96" stroke-linejoin="round" stroke-linecap="round"/>
    <path d="M4 -6 L10 -6 L10 30 L4 30 Z" fill="#f1f5f9" stroke="#1f2937" stroke-width="0.96" stroke-linejoin="round" stroke-linecap="round"/>
    <path d="M18 -6 L24 -6 L24 30 L18 30 Z" fill="#f1f5f9" stroke="#1f2937" stroke-width="0.96" stroke-linejoin="round" stroke-linecap="round"/>
    <path d="M-64 6 L-56 6 L-56 22 L-64 22 Z" fill="#94a3b8" stroke="#1f2937" stroke-width="0.96" stroke-linejoin="round" stroke-linecap="round"/>
    <path d="M-48 6 L-40 6 L-40 22 L-48 22 Z" fill="#94a3b8" stroke="#1f2937" stroke-width="0.96" stroke-linejoin="round" stroke-linecap="round"/>
    <path d="M40 6 L48 6 L48 22 L40 22 Z" fill="#94a3b8" stroke="#1f2937" stroke-width="0.96" stroke-linejoin="round" stroke-linecap="round"/>
    <path d="M56 6 L64 6 L64 22 L56 22 Z" fill="#94a3b8" stroke="#1f2937" stroke-width="0.96" stroke-linejoin="round" stroke-linecap="round"/>
    <path d="M-82 30 L82 30 L82 38 L-82 38 Z" fill="#f1f5f9" stroke="#1f2937" stroke-width="1.15" stroke-linejoin="round" stroke-linecap="round"/>
    </g>
    <text font-family="Arial, Helvetica, sans-serif" font-weight="700" font-size="14" letter-spacing="1" fill="#334155" text-anchor="middle"><textPath href="#nickelb-t5" startOffset="50%">E PLURIBUS UNUM</textPath></text>
    <text x="0" y="56" font-family="Arial, Helvetica, sans-serif" font-weight="700" font-size="13" letter-spacing="1.5" fill="#334155" text-anchor="middle">FIVE CENTS</text>
    <text font-family="Arial, Helvetica, sans-serif" font-weight="700" font-size="12" letter-spacing="0.6" fill="#334155" text-anchor="middle"><textPath href="#nickelb-t6" startOffset="50%">UNITED STATES OF AMERICA</textPath></text>
  </g>
</svg>
