<svg xmlns="http://www.w3.org/2000/svg" viewBox="0 0 800 800">
  <defs>
    <radialGradient id="quarterb-metal" cx="0.38" cy="0.32" r="0.75">
      <stop offset="0" stop-color="#f1f5f9"/>
      <stop offset="1" stop-color="#cbd5e1"/>
    </radialGradient>
    <clipPath id="quarterb-field"><circle cx="0" cy="0" r="100"/></clipPath>
    <path id="quarterb-t11" d="M0 80 A80 80 0 1 1 0 -80 A80 80 0 1 1 0 80"/>
    <path id="quarterb-t12" d="M0 -93 A93 93 0 1 0 0 93 A93 93 0 1 0 0 -93"/>
  </defs>
  <circle cx="410" cy="412" r="340" fill="#1f2937" opacity="0.12"/>
  <polygon points="400,60 407,67.1 414.2,60.3 420.9,67.7 428.5,61.2 434.8,68.8 442.6,62.7 448.6,70.6 456.7,64.8 462.4,72.9 470.7,67.4 476,75.8 484.6,70.7 489.6,79.3 498.3,74.5 502.9,83.3 511.8,78.9 516.1,87.9 525.2,83.9 529,93 538.3,89.4 541.8,98.7 551.2,95.5 554.3,104.9 563.8,102.1 566.5,111.6 576.1,109.2 578.4,118.8 588.2,116.8 590,126.6 599.8,124.9 601.3,134.8 611.2,133.5 612.3,143.4 622.2,142.6 622.8,152.5 632.7,152.2 633,162.1 642.9,162.1 642.7,172 652.7,172.5 652.1,182.4 662,183.3 661,193.2 670.8,194.4 669.4,204.3 679.2,206 677.4,215.7 687.1,217.8 684.8,227.5 694.4,230 691.8,239.6 701.3,242.5 698.3,251.9 707.6,255.2 704.2,264.6 713.4,268.2 709.6,277.4 718.7,281.5 714.5,290.5 723.4,294.9 718.8,303.8 727.5,308.6 722.5,317.2 731,322.4 725.7,330.8 734,336.3 728.3,344.5 736.4,350.3 730.4,358.3 738.1,364.5 731.8,372.1 739.3,378.7 732.7,386.1 739.9,392.9 733,400 739.9,407.1 732.7,413.9 739.3,421.3 731.8,427.9 738.1,435.5 730.4,441.7 736.4,449.7 728.3,455.5 734,463.7 725.7,469.2 731,477.6 722.5,482.8 727.5,491.4 718.8,496.2 723.4,505.1 714.5,509.5 718.7,518.5 709.6,522.6 713.4,531.8 704.2,535.4 707.6,544.8 698.3,548.1 701.3,557.5 691.8,560.4 694.4,570 684.8,572.5 687.1,582.2 677.4,584.3 679.2,594 669.4,595.7 670.8,605.6 661,606.8 662,616.7 652.1,617.6 652.7,627.5 642.7,628 642.9,637.9 633,637.9 632.7,647.8 622.8,647.5 622.2,657.4 612.3,656.6 611.2,666.5 601.3,665.2 599.8,675.1 590,673.4 588.2,683.2 578.4,681.2 576.1,690.8 566.5,688.4 563.8,697.9 554.3,695.1 551.2,704.5 541.8,701.3 538.3,710.6 529,707 525.2,716.1 516.1,712.1 511.8,721.1 502.9,716.7 498.3,725.5 489.6,720.7 484.6,729.3 476,724.2 470.7,732.6 462.4,727.1 456.7,735.2 448.6,729.4 442.6,737.3 434.8,731.2 428.5,738.8 420.9,732.3 414.2,739.7 407,732.9 400,740 393,732.9 385.8,739.7 379.1,732.3 371.5,738.8 365.2,731.2 357.4,737.3 351.4,729.4 343.3,735.2 337.6,727.1 329.3,732.6 324,724.2 315.4,729.3 310.4,720.7 301.7,725.5 297.1,716.7 288.2,721.1 283.9,712.1 274.8,716.1 271,707 261.7,710.6 258.2,701.3 248.8,704.5 245.7,695.1 236.2,697.9 233.5,688.4 223.9,690.8 221.6,681.2 211.8,683.2 210,673.4 200.2,675.1 198.7,665.2 188.8,666.5 187.7,656.6 177.8,657.4 177.2,647.5 167.3,647.8 167,637.9 157.1,637.9 157.3,628 147.3,627.5 147.9,617.6 138,616.7 139,606.8 129.2,605.6 130.6,595.7 120.8,594 122.6,584.3 112.9,582.2 115.2,572.5 105.6,570 108.2,560.4 98.7,557.5 101.7,548.1 92.4,544.8 95.8,535.4 86.6,531.8 90.4,522.6 81.3,518.5 85.5,509.5 76.6,505.1 81.2,496.2 72.5,491.4 77.5,482.8 69,477.6 74.3,469.2 66,463.7 71.7,455.5 63.6,449.7 69.6,441.7 61.9,435.5 68.2,427.9 60.7,421.3 67.3,413.9 60.1,407.1 67,400 60.1,392.9 67.3,386.1 60.7,378.7 68.2,372.1 61.9,364.5 69.6,358.3 63.6,350.3 71.7,344.5 66,336.3 74.3,330.8 69,322.4 77.5,317.2 72.5,308.6 81.2,303.8 76.6,294.9 85.5,290.5 81.3,281.5 90.4,277.4 86.6,268.2 95.8,264.6 92.4,255.2 101.7,251.9 98.7,242.5 108.2,239.6 105.6,230 115.2,227.5 112.9,217.8 122.6,215.7 120.8,206 130.6,204.3 129.2,194.4 139,193.2 138,183.3 147.9,182.4 147.3,172.5 157.3,172 157.1,162.1 167,162.1 167.3,152.2 177.2,152.5 177.8,142.6 187.7,143.4 188.8,133.5 198.7,134.8 200.2,124.9 210,126.6 211.8,116.8 221.6,118.8 223.9,109.2 233.5,111.6 236.2,102.1 245.7,104.9 248.8,95.5 258.2,98.7 261.7,89.4 271,93 274.8,83.9 283.9,87.9 288.2,78.9 297.1,83.3 301.7,74.5 310.4,79.3 315.4,70.7 324,75.8 329.3,67.4 337.6,72.9 343.3,64.8 351.4,70.6 357.4,62.7 365.2,68.8 371.5,61.2 379.1,67.7 385.8,60.3 393,67.1" fill="#94a3b8" stroke="#1f2937" stroke-width="3" stroke-linejoin="round"/>
  <circle cx="400" cy="400" r="331" fill="url(#quarterb-metal)" stroke="#1f2937" stroke-width="4"/>
  <circle cx="400" cy="400" r="299.2" fill="none" stroke="#94a3b8" stroke-width="5"/>
  <path d="M121.7 292.3 A299.2 299.2 0 0 1 292.3 121.7" fill="none" stroke="#ffffff" stroke-width="6" stroke-linecap="round" opacity="0.6"/>
  <g transform="translate(400 400) scale(2.9920)">
    <path d="M-12 -22 C-12.7 -26.7 -19.4 -33 -22 -36 C-24.6 -39 -31 -45.7 -34 -48 C-37 -50.3 -45.2 -56 -48 -56 C-50.8 -56 -56.1 -51.3 -58 -48 C-59.9 -44.7 -63 -33.1 -64 -28 C-65 -22.9 -66.8 -9.4 -67 -4 C-67.2 1.4 -66.6 14 -66 18 C-65.4 22 -63 29.8 -62 30 C-61 30.2 -58 19.8 -57 20 C-56 20.2 -54 32 -53 32 C-52 32 -49.2 20.2 -48 20 C-46.8 19.8 -44.2 30.5 -43 30 C-41.8 29.5 -39.3 16.7 -38 16 C-36.7 15.3 -33.4 24.7 -32 24 C-30.6 23.3 -27.9 12.3 -26 10 C-24.1 7.7 -17.6 7.7 -16 4 C-14.4 0.3 -11.3 -17.3 -12 -22 Z" fill="#e2e8f0" stroke="#1f2937" stroke-width="1.50" stroke-linejoin="round" stroke-linecap="round"/>
    <path d="M-18 -14 C-21.7 -17.3 -33.7 -29.7 -40 -34 C-46.3 -38.3 -53.3 -39 -56 -40" fill="none" stroke="#94a3b8" stroke-width="1.00" stroke-linecap="round" stroke-linejoin="round"/>
    <path d="M-20 -2 C-24 -4.3 -37 -13.3 -44 -16 C-51 -18.7 -59 -17.7 -62 -18" fill="none" stroke="#94a3b8" stroke-width="1.00" stroke-linecap="round" stroke-linejoin="round"/>
    <path d="M-24 8 C-27.7 7 -39.3 2.7 -46 2 C-52.7 1.3 -61 3.7 -64 4" fill="none" stroke="#94a3b8" stroke-width="1.00" stroke-linecap="round" stroke-linejoin="round"/>
    <path d="M-50 12 C-50.3 13.7 -51.7 20.3 -52 22" fill="none" stroke="#94a3b8" stroke-width="0.84" stroke-linecap="round" stroke-linejoin="round"/>
    <path d="M-40 10 C-40.3 11.7 -41.7 18.3 -42 20" fill="none" stroke="#94a3b8" stroke-width="0.84" stroke-linecap="round" stroke-linejoin="round"/>
    <path d="M12 -22 C12.7 -26.7 19.4 -33 22 -36 C24.6 -39 31 -45.7 34 -48 C37 -50.3 45.2 -56 48 -56 C50.8 -56 56.1 -51.3 58 -48 C59.9 -44.7 63 -33.1 64 -28 C65 -22.9 66.8 -9.4 67 -4 C67.2 1.4 66.6 14 66 18 C65.4 22 63 29.8 62 30 C61 30.2 58 19.8 57 20 C56 20.2 54 32 53 32 C52 32 49.2 20.2 48 20 C46.8 19.8 44.2 30.5 43 30 C41.8 29.5 39.3 16.7 38 16 C36.7 15.3 33.4 24.7 32 24 C30.6 23.3 27.9 12.3 26 10 C24.1 7.7 17.6 7.7 16 4 C14.4 0.3 11.3 -17.3 12 -22 Z" fill="#e2e8f0" stroke="#1f2937" stroke-width="1.50" stroke-linejoin="round" stroke-linecap="round"/>
    <path d="M18 -14 C21.7 -17.3 33.7 -29.7 40 -34 C46.3 -38.3 53.3 -39 56 -40" fill="none" stroke="#94a3b8" stroke-width="1.00" stroke-linecap="round" stroke-linejoin="round"/>
    <path d="M20 -2 C24 -4.3 37 -13.3 44 -16 C51 -18.7 59 -17.7 62 -18" fill="none" stroke="#94a3b8" stroke-width="1.00" stroke-linecap="round" stroke-linejoin="round"/>
    <path d="M24 8 C27.7 7 39.3 2.7 46 2 C52.7 1.3 61 3.7 64 4" fill="none" stroke="#94a3b8" stroke-width="1.00" stroke-linecap="round" stroke-linejoin="round"/>
    <path d="M50 12 C50.3 13.7 51.7 20.3 52 22" fill="none" stroke="#94a3b8" stroke-width="0.84" stroke-linecap="round" stroke-linejoin="round"/>
    <path d="M40 10 C40.3 11.7 41.7 18.3 42 20" fill="none" stroke="#94a3b8" stroke-width="0.84" stroke-linecap="round" stroke-linejoin="round"/>
    <path d="M-10 20 L-14 34 L-5 32 L0 36 L5 32 L14 34 L10 20 Z" fill="#e2e8f0" stroke="#1f2937" stroke-width="1.17" stroke-linejoin="round" stroke-linecap="round"/>
    <path d="M0 -32 C3.7 -32 8.3 -29.7 11 -26 C13.7 -22.3 15.3 -15.7 16 -10 C16.7 -4.3 16 2.7 15 8 C14 13.3 12.5 18.7 10 22 C7.5 25.3 3.3 28 0 28 C-3.3 28 -7.5 25.3 -10 22 C-12.5 18.7 -14 13.3 -15 8 C-16 2.7 -16.7 -4.3 -16 -10 C-15.3 -15.7 -13.7 -22.3 -11 -26 C-8.3 -29.7 -3.7 -32 0 -32 Z" fill="#f1f5f9" stroke="#1f2937" stroke-width="1.50" stroke-linejoin="round" stroke-linecap="round"/>
    <path d="M-8 -12 Q-4 -8 0 -12 Q4 -8 8 -12" fill="none" stroke="#94a3b8" stroke-width="0.84" stroke-linecap="round" stroke-linejoin="round"/>
    <path d="M-8 -2 Q-4 2 0 -2 Q4 2 8 -2" fill="none" stroke="#94a3b8" stroke-width="0.84" stroke-linecap="round" stroke-linejoin="round"/>
    <path d="M-8 8 Q-4 12 0 8 Q4 12 8 8" fill="none" stroke="#94a3b8" stroke-width="0.84" stroke-linecap="round" stroke-linejoin="round"/>
    <path d="M3 -45 C5 -44.4 6.4 -42 7 -40 C7.6 -38 7.5 -34 7 -32 C6.5 -30.1 5.8 -27.8 4 -27 C2.2 -26.2 -3.2 -26.2 -5 -27 C-6.8 -27.8 -7.1 -30.9 -8 -32 C-8.9 -33 -9.9 -33.8 -11 -34 C-12.1 -34.2 -14.1 -33.1 -15 -33.5 C-15.9 -33.9 -17.4 -35.6 -17 -36.5 C-16.6 -37.4 -13.7 -38.4 -12 -39.5 C-10.3 -40.6 -8.2 -43.2 -6 -44 C-3.8 -44.8 1 -45.6 3 -45 Z" fill="#f1f5f9" stroke="#1f2937" stroke-width="1.34" stroke-linejoin="round" stroke-linecap="round"/>
    <path d="M-16.5 -35 Q-17.5 -31 -14 -31" fill="none" stroke="#1f2937" stroke-width="0.84" stroke-linecap="round" stroke-linejoin="round"/>
    <circle cx="-3" cy="-38.5" r="1.7" fill="#1f2937"/>
    <path d="M-32 30 L34 30 L34 37 L-32 37 Z" fill="#e2e8f0" stroke="#1f2937" stroke-width="1.17" stroke-linejoin="round" stroke-linecap="round"/>
    <path d="M-42 33.5 L-32 27 L-32 40 Z" fill="#f1f5f9" stroke="#1f2937" stroke-width="1.00" stroke-linejoin="round" stroke-linecap="round"/>
    <path d="M28 30 L36 25 M33 30 L41 25 M28 37 L36 42 M33 37 L41 42" fill="none" stroke="#1f2937" stroke-width="1.00" stroke-linecap="round" stroke-linejoin="round"/>
    <path d="M-20 31 L-20 36 M-8 31 L-8 36 M8 31 L8 36 M20 31 L20 36" fill="none" stroke="#94a3b8" stroke-width="0.84" stroke-linecap="round" stroke-linejoin="round"/>
    <path d="M-13 24 L-14 32 M-8 25 L-8 33 M-3 24 L-2 32" fill="#e2e8f0" stroke="#1f2937" stroke-width="1.00" stroke-linejoin="round" stroke-linecap="round"/>
    <path d="M3 24 L2 32 M8 25 L8 33 M13 24 L14 32" fill="#e2e8f0" stroke="#1f2937" stroke-width="1.00" stroke-linejoin="round" stroke-linecap="round"/>
    <path d="M0 58 Q-24 56 -46 40" fill="none" stroke="#1f2937" stroke-width="1.17" stroke-linecap="round" stroke-linejoin="round"/>
    <path d="M-10.5 56.4 Q-8.8 49.4 -14.6 45.2 Q-16.3 52.2 -10.5 56.4 Z" fill="#e2e8f0" stroke="#1f2937" stroke-width="1.00" stroke-linejoin="round" stroke-linecap="round"/>
    <path d="M-19.8 53.9 Q-27 53.4 -30.2 59.9 Q-23 60.3 -19.8 53.9 Z" fill="#e2e8f0" stroke="#1f2937" stroke-width="1.00" stroke-linejoin="round" stroke-linecap="round"/>
    <path d="M-29 50.1 Q-27.3 43.1 -33.1 38.9 Q-34.8 45.9 -29 50.1 Z" fill="#e2e8f0" stroke="#1f2937" stroke-width="1.00" stroke-linejoin="round" stroke-linecap="round"/>
    <path d="M-37.1 45.8 Q-44.3 45.4 -47.5 51.8 Q-40.3 52.3 -37.1 45.8 Z" fill="#e2e8f0" stroke="#1f2937" stroke-width="1.00" stroke-linejoin="round" stroke-linecap="round"/>
    <path d="M-45.1 40.6 Q-43.4 33.6 -49.2 29.4 Q-50.9 36.4 -45.1 40.6 Z" fill="#e2e8f0" stroke="#1f2937" stroke-width="1.00" stroke-linejoin="round" stroke-linecap="round"/>
    <path d="M0 58 Q24 56 46 40" fill="none" stroke="#1f2937" stroke-width="1.17" stroke-linecap="round" stroke-linejoin="round"/>
    <path d="M10.5 56.4 Q16.3 52.2 14.6 45.2 Q8.8 49.4 10.5 56.4 Z" fill="#e2e8f0" stroke="#1f2937" stroke-width="1.00" stroke-linejoin="round" stroke-linecap="round"/>
    <path d="M19.8 53.9 Q23 60.3 30.2 59.9 Q27 53.4 19.8 53.9 Z" fill="#e2e8f0" stroke="#1f2937" stroke-width="1.00" stroke-linejoin="round" stroke-linecap="round"/>
    <path d="M29 50.1 Q34.8 45.9 33.1 38.9 Q27.3 43.1 29 50.1 Z" fill="#e2e8f0" stroke="#1f2937" stroke-width="1.00" stroke-linejoin="round" stroke-linecap="round"/>
    <path d="M37.1 45.8 Q40.3 52.3 47.5 51.8 Q44.3 45.4 37.1 45.8 Z" fill="#e2e8f0" stroke="#1f2937" stroke-width="1.00" stroke-linejoin="round" stroke-linecap="round"/>
    <path d="M45.1 40.6 Q50.9 36.4 49.2 29.4 Q43.4 33.6 45.1 40.6 Z" fill="#e2e8f0" stroke="#1f2937" stroke-width="1.00" stroke-linejoin="round" stroke-linecap="round"/>
    <text font-family="Arial, Helvetica, sans-serif" font-weight="700" font-size="12" letter-spacing="0.8" fill="#334155" text-anchor="middle"><textPath href="#quarterb-t11" startOffset="50%">UNITED STATES OF AMERICA</textPath></text>
    <text x="0" y="-60" font-family="Arial, Helvetica, sans-serif" font-weight="700" font-size="8" letter-spacing="0.3" fill="#334155" text-anchor="middle">E PLURIBUS UNUM</text>
    <text font-family="Arial, Helvetica, sans-serif" font-weight="700" font-size="13" letter-spacing="1.2" fill="#334155" text-anchor="middle"><textPath href="#quarterb-t12" startOffset="50%">QUARTER DOLLAR</textPath></text>
  </g>
</svg>
