<svg xmlns="http://www.w3.org/2000/svg" viewBox="0 0 800 800">
<defs>
<clipPath id="quartzite-clip"><path d="M148 424L192 300L302 232L452 212L582 252L660 350L650 482L570 580L420 616L270 592L172 522Z"/></clipPath>
</defs>
<ellipse cx="405" cy="618" rx="262" ry="24" fill="#1f2937" opacity="0.12"/>
<g clip-path="url(#quartzite-clip)">
<path d="M148 424L192 300L302 232L452 212L582 252L660 350L650 482L570 580L420 616L270 592L172 522Z" fill="#f6d2cd"/><path fill="#fbe3e0" d="M405 165L440 165L440 182L427 206L408 176ZM440 166L455 166L462 200L456 210L448 210L440 182ZM332 238L324 219L324 217L336 218L344 230ZM368 237L358 226L358 223L373 209L379 216L382 227ZM444 230L446 212L448 210L456 210L464 218L464 229L453 233ZM277 233L280 236L280 249L257 257L254 252ZM310 245L307 238L324 219L332 238L330 245L316 251ZM348 252L349 231L358 226L368 237L369 250L364 252ZM391 249L391 231L401 227L408 235L409 245L394 249ZM431 250L431 237L444 230L453 233L452 252L446 254ZM316 261L316 251L330 245L346 253L342 270L328 273ZM409 266L394 249L409 245L424 255L422 260L413 266ZM435 280L422 260L424 255L431 250L446 254L447 270L437 282ZM534 268L525 251L536 241L548 255L547 258ZM644 239L644 254L623 274L603 266L604 256ZM159 248L201 248L205 253L196 289L194 291L159 272ZM205 253L223 267L223 268L217 291L196 289ZM246 282L241 273L257 264L265 270L266 279L257 287ZM297 296L287 284L291 277L294 272L302 271L310 284L303 298ZM374 292L372 288L377 277L383 270L394 274L401 292L396 298ZM464 285L461 275L468 262L480 267L481 269L466 286L465 286ZM553 283L556 278L569 269L574 271L578 288L571 292ZM578 288L574 271L582 265L597 273L598 281L591 291ZM645 254L663 254L663 272L637 296L620 281L623 274ZM194 308L192 306L194 291L196 289L217 291L220 298ZM239 301L239 300L246 282L257 287L256 300L245 305ZM282 311L271 303L278 287L287 284L297 296ZM318 305L321 282L326 277L339 302L330 307ZM353 309L350 306L367 288L372 288L374 292L374 299L366 313ZM374 299L374 292L396 298L395 304L385 315ZM407 316L395 304L396 298L401 292L412 292L420 302ZM438 303L440 288L464 285L465 286L465 298L447 305ZM568 301L571 292L578 288L591 291L596 304L595 307L591 310ZM137 284L144 284L179 308L170 331L137 308ZM195 311L194 308L220 298L224 302L219 321L210 324ZM261 324L268 303L271 303L282 311L286 324L275 331ZM357 334L350 328L353 309L366 313L368 317ZM368 317L366 313L374 299L385 315L383 320L381 321ZM383 320L385 315L395 304L407 316L407 319L396 329ZM461 323L447 305L465 298L467 301L469 323L464 324ZM469 323L467 301L488 301L493 306L489 315L475 325ZM587 333L582 318L591 310L595 307L604 330ZM604 330L595 307L596 304L613 304L623 310L623 321L608 332ZM123 304L130 304L170 331L170 331L170 332L154 353L123 352ZM272 346L275 331L286 324L289 325L296 339L284 350ZM340 345L340 328L350 328L357 334L358 335L351 348ZM397 339L396 329L407 319L422 328L422 338L419 340ZM422 338L422 328L433 314L446 327L442 343L436 345ZM456 345L464 324L469 323L475 325L481 337L480 339ZM539 335L541 327L559 314L563 318L565 343L561 348ZM582 340L587 333L604 330L608 332L609 335L600 351ZM686 314L686 326L666 348L649 350L646 349L644 333L684 315ZM194 361L206 342L214 348L217 355L209 364ZM305 351L307 347L319 341L327 349L329 357L321 368ZM329 357L327 349L340 345L351 348L352 351L341 364ZM371 353L373 341L394 344L395 359L383 362ZM462 359L460 357L455 347L456 345L480 339L481 357ZM481 357L480 339L481 337L504 335L504 336L498 360L487 362ZM618 360L620 344L626 343L638 352L631 363ZM652 367L649 350L666 348L669 366ZM232 368L232 365L244 351L260 372L258 378L243 376ZM386 383L376 372L383 362L395 359L399 362L402 378ZM506 385L509 364L514 363L524 365L518 392ZM539 393L524 365L532 360L549 364L550 382ZM579 384L576 381L575 369L586 362L595 363L597 372ZM633 369L631 363L638 352L646 349L649 350L652 367L648 373L645 374ZM648 373L652 367L669 366L671 369L671 376L667 386ZM712 353L712 369L688 378L671 376L671 369ZM126 386L166 375L169 381L151 397L148 398ZM176 390L175 385L192 372L204 383L198 395ZM224 392L219 382L232 368L243 376L237 395L230 397ZM237 395L243 376L258 378L261 386L255 401L254 403ZM255 401L261 386L287 387L287 396ZM350 401L350 377L361 374L363 375L370 392L353 401ZM370 392L363 375L376 372L386 383L380 396ZM382 402L380 396L386 383L402 378L406 382L405 392L395 403ZM433 397L429 384L440 374L457 378L459 390L434 398ZM459 390L457 378L458 376L485 376L485 380L466 395L464 395ZM552 413L537 395L539 393L550 382L559 385L563 399ZM563 399L559 385L576 381L579 384L583 392L572 400ZM667 392L667 386L671 376L688 378L673 397ZM256 414L254 403L255 401L287 396L287 398L287 398L272 414L261 416ZM272 414L287 398L297 419L290 426ZM417 419L416 416L420 407L433 397L434 398L446 416L437 421ZM558 422L553 418L552 413L563 399L572 400L573 413ZM418 430L417 419L437 421L432 437L431 438ZM511 431L515 420L523 413L536 424L528 444ZM528 444L528 444L536 424L553 418L558 422L558 424ZM586 431L577 414L591 407L601 418L598 425ZM629 445L622 435L622 416L628 413L636 416L642 430L633 444ZM699 413L699 426L661 429L659 418L674 399ZM154 452L150 434L157 420L158 420L166 441L158 453ZM432 462L424 455L431 438L432 437L445 441L450 452ZM529 447L528 444L558 424L561 432L545 448L529 447ZM593 448L583 434L586 431L598 425L605 436L604 447ZM633 444L642 430L659 432L659 450L645 452ZM139 474L141 457L154 452L158 453L163 457L163 475L148 482ZM195 478L187 466L185 455L192 446L197 448L210 468L205 475ZM218 466L220 457L231 447L233 447L244 458L244 470L232 477ZM310 459L310 456L318 445L334 459L320 470ZM433 467L432 462L450 452L453 453L450 473L447 476ZM480 468L476 464L489 449L497 448L501 453L504 466L501 471ZM524 481L514 465L528 453L537 472ZM607 462L609 452L627 448L627 471L616 472ZM640 469L645 452L659 450L666 456L665 464L661 468ZM711 438L711 494L692 494L665 464L666 456ZM114 517L107 517L107 488L139 474L148 482L148 492L137 503ZM148 492L148 482L163 475L168 479L161 497ZM197 498L190 490L195 478L205 475L218 492L218 492ZM314 484L320 475L336 480L335 494L328 504ZM367 491L357 474L362 471L378 470L382 483ZM432 492L429 489L427 476L433 467L447 476L448 488ZM480 489L480 468L501 471L504 484L490 494ZM591 488L588 469L607 462L616 472L608 485L596 491ZM635 479L634 476L640 469L661 468L652 488ZM694 495L694 497L655 492L652 488L661 468L665 464ZM187 517L175 502L184 491L190 490L197 498L198 506ZM238 501L238 499L260 487L262 489L261 503L254 510ZM338 514L328 506L328 505L328 504L335 494L346 494L362 508ZM406 506L406 490L429 489L432 492L431 501L427 507ZM517 501L516 489L521 486L540 497L533 511ZM561 508L557 497L575 490L583 491L575 511ZM601 503L596 491L608 485L627 495L627 496L617 507ZM627 496L627 495L635 479L652 488L655 492L647 506L643 507ZM691 496L691 536L676 536L647 506L655 492ZM239 525L234 510L238 501L254 510L253 518L243 527ZM318 524L328 506L338 514L338 528L328 534ZM430 518L427 507L431 501L444 506L440 518ZM480 522L482 513L492 503L504 512L506 521ZM507 525L506 521L504 512L517 501L533 511L534 513L528 525L523 528ZM206 542L203 531L210 516L215 514L227 529L223 537L212 544ZM281 544L280 542L285 527L297 522L299 522L304 527L307 540L290 548ZM307 540L304 527L318 524L328 534L324 543L312 545ZM381 541L368 530L381 523L390 534L390 536ZM540 542L539 532L552 532L554 545ZM258 554L255 543L262 540L280 542L281 544L275 561L267 563ZM332 562L333 553L352 543L355 547L353 563L345 570ZM353 563L355 547L374 552L368 568ZM420 556L420 545L429 538L438 539L446 559L427 561ZM481 564L489 541L498 539L507 550L509 556L497 566ZM530 553L540 542L554 545L555 546L552 554L538 556ZM649 555L649 579L628 579L618 571L610 550L618 534ZM204 601L188 601L188 595L219 557L230 584ZM230 584L219 557L219 557L235 556L242 568L242 571L232 584ZM242 571L242 568L258 554L267 563L263 577ZM489 591L476 578L476 575L480 565L481 564L497 566L508 584ZM523 579L522 560L530 553L530 553L538 556L545 581ZM545 581L538 556L552 554L561 575L548 582ZM489 599L489 591L508 584L511 584L512 598L498 608ZM512 598L511 584L523 579L528 596L520 607ZM562 624L553 624L547 600L548 582L561 575L561 575L575 582L573 598ZM342 612L345 597L361 596L371 605L370 613L370 613L360 622ZM554 631L530 631L520 607L528 596L547 600Z"/><path fill="#efc1bb" d="M455 163L499 163L499 182L484 198L462 200ZM311 179L350 179L348 213L336 218L324 217L311 186ZM408 176L427 206L427 212L423 215L409 213ZM280 236L277 233L274 226L299 217L303 236ZM344 230L336 218L348 213L358 223L358 226L349 231ZM518 200L528 200L532 236L519 235L510 217ZM574 198L610 198L610 207L595 232L575 237L565 232ZM287 258L284 256L280 249L280 236L303 236L307 238L310 245ZM383 270L381 256L391 249L394 249L409 266L394 274ZM239 300L228 270L241 273L246 282ZM310 284L302 271L316 261L328 273L326 277L321 282ZM339 302L326 277L328 273L342 270L349 276L349 278L339 302ZM440 288L437 282L447 270L461 275L464 285ZM220 298L217 291L223 268L228 270L239 300L239 301L224 302ZM303 298L310 284L321 282L318 305L312 307ZM319 341L319 338L333 325L340 328L340 345L327 349ZM358 335L357 334L368 317L381 321L372 339ZM373 341L372 339L381 321L383 320L396 329L397 339L394 344ZM481 337L475 325L489 315L504 332L504 335ZM504 336L504 335L504 332L517 313L522 319L525 338L516 340ZM565 343L563 318L582 318L587 333L582 340L577 343ZM609 335L608 332L623 321L633 329L626 343L620 344ZM270 364L270 349L272 346L284 350L296 363L296 364L271 365ZM296 363L284 350L296 339L307 347L305 351ZM413 358L419 340L422 338L436 345L434 358L421 363ZM122 385L122 352L154 353L166 364L166 375L126 386ZM210 381L209 364L217 355L232 365L232 368L219 382ZM361 374L362 358L371 353L383 362L376 372L363 375ZM440 374L439 365L460 357L462 359L458 376L457 378ZM611 377L617 360L618 360L631 363L633 369L624 382ZM316 396L307 379L320 373L334 380L330 396ZM330 396L334 380L345 376L350 377L350 401L342 406L340 405ZM347 421L342 406L350 401L353 401L368 414L367 421ZM481 414L483 404L492 399L500 406L501 407L494 419ZM523 413L526 398L537 395L552 413L553 418L536 424ZM139 433L132 419L155 418L157 420L150 434ZM166 441L158 420L176 417L180 419L180 419L184 430ZM220 438L218 430L233 420L240 422L240 435L233 447L231 447ZM561 432L558 424L558 422L573 413L577 414L586 431L583 434L571 439ZM642 430L636 416L649 412L659 418L661 429L659 432ZM124 449L139 433L150 434L154 452L141 457ZM291 446L293 437L314 437L318 440L318 445L310 456ZM489 449L479 434L497 427L506 432L497 448ZM501 453L497 448L506 432L511 431L528 444L528 444L529 447ZM581 464L571 440L571 439L583 434L593 448L583 465ZM320 475L320 470L334 459L343 459L349 471L336 480ZM583 465L593 448L604 447L609 452L607 462L588 469ZM557 497L550 491L549 477L557 471L562 471L575 490ZM367 506L367 491L382 483L392 486L383 506L375 507ZM383 506L392 486L401 482L406 490L406 506L403 511L400 512ZM145 541L121 541L121 513L137 503L164 510L163 522ZM253 518L254 510L261 503L274 512L274 519L266 522ZM192 550L181 539L183 523L186 522L203 531L206 542ZM555 546L554 545L552 532L556 526L577 532L580 537L580 537L573 546ZM192 591L175 591L175 588L192 550L206 542L212 544L219 557L219 557ZM446 559L438 539L448 535L457 554L448 560ZM465 553L468 529L475 528L489 541L481 564L480 565ZM508 584L497 566L509 556L522 560L523 579L523 579L511 584ZM301 595L300 583L305 575L318 585L316 593L302 596ZM528 596L523 579L523 579L545 581L548 582L547 600ZM573 598L575 582L581 581L610 601Z"/><path fill="#fdf1ee" d="M259 184L311 184L311 186L299 217L274 226L259 211ZM427 212L427 206L440 182L448 210L446 212ZM456 210L462 200L484 198L479 213L479 213L464 218ZM498 183L520 183L520 195L510 217L503 222L479 213L484 198ZM431 237L426 230L423 215L427 212L446 212L444 230ZM473 238L464 229L464 218L479 213L485 236ZM485 236L479 213L479 213L503 222L493 238ZM369 250L368 237L382 227L391 231L391 249L381 256ZM409 245L408 235L426 230L431 237L431 250L424 255ZM499 250L493 238L503 222L510 217L519 235L513 250L504 254ZM223 268L223 267L248 246L254 252L257 257L257 264L241 273L228 270ZM257 264L257 257L280 249L284 256L272 267L265 270ZM468 262L465 254L467 252L491 255L480 267ZM556 278L547 258L548 255L556 253L562 257L569 269ZM349 278L349 276L361 269L377 277L372 288L367 288ZM401 292L394 274L409 266L413 266L415 287L412 292ZM415 287L413 266L422 260L435 280ZM466 286L481 269L489 278L483 286ZM490 278L505 259L509 263L511 279L501 285ZM420 302L412 292L415 287L435 280L437 282L440 288L438 303L434 307ZM467 301L465 298L465 286L466 286L483 286L488 301ZM488 301L483 286L489 278L490 278L501 285L501 303L493 306ZM520 302L527 289L533 285L544 288L551 307L538 310ZM551 307L544 288L553 283L571 292L568 301L559 313ZM596 304L591 291L598 281L617 284L613 304ZM246 317L245 305L256 300L268 303L261 324L254 325ZM333 325L330 307L339 302L339 302L350 306L353 309L350 328L340 328ZM407 319L407 316L420 302L434 307L433 314L422 328ZM446 327L433 314L434 307L438 303L447 305L461 323ZM623 321L623 310L635 304L644 310L640 330L633 329ZM678 314L678 318L644 333L640 330L644 310ZM185 331L195 311L210 324L204 338L197 338ZM442 343L446 327L461 323L464 324L456 345L455 347ZM525 338L522 319L534 321L541 327L539 335L530 341ZM626 343L633 329L640 330L644 333L646 349L638 352ZM244 351L245 347L270 349L270 364L260 372ZM395 359L394 344L397 339L419 340L413 358L399 362ZM586 362L577 343L582 340L600 351L601 355L595 363ZM601 355L600 351L609 335L620 344L618 360L617 360ZM175 385L169 381L166 375L166 364L182 358L190 363L192 372ZM192 372L190 363L194 361L209 364L210 381L204 383ZM287 387L271 365L296 364L299 377ZM320 373L321 368L329 357L341 364L345 376L334 380ZM345 376L341 364L352 351L362 358L361 374L350 377ZM458 376L462 359L481 357L487 362L485 376ZM485 380L485 376L487 362L498 360L509 364L506 385L493 388ZM519 394L518 392L524 365L524 365L539 393L537 395L526 398ZM583 392L579 384L597 372L606 380L603 389L589 396ZM609 395L603 389L606 380L611 377L624 382L630 396L629 397ZM630 396L624 382L633 369L645 374L641 392ZM641 392L645 374L648 373L667 386L667 392L653 396ZM180 419L180 419L199 399L207 406L210 412L209 416ZM210 412L207 406L224 392L230 397L226 410ZM233 420L226 410L230 397L237 395L254 403L256 414L240 422ZM297 419L287 398L287 398L312 405L312 411L304 417ZM368 414L353 401L370 392L380 396L382 402L381 403ZM388 428L381 403L382 402L395 403L404 415L392 429ZM501 407L500 406L519 394L526 398L523 413L515 420ZM591 407L589 396L603 389L609 395L606 416L601 418ZM101 447L101 402L132 419L139 433L124 449ZM293 437L290 430L290 426L297 419L304 417L314 437ZM369 427L367 421L368 414L381 403L388 428L382 430ZM401 444L392 429L404 415L416 416L417 419L418 430L404 443ZM163 457L158 453L166 441L184 430L191 438L192 446L185 455ZM207 447L220 438L231 447L220 457ZM259 449L258 441L264 429L275 435L275 450L259 449ZM376 451L382 430L388 428L392 429L401 444L391 458L390 458ZM450 452L445 441L453 424L468 439L462 453L453 453ZM609 452L604 447L605 436L622 435L629 445L627 448ZM702 425L702 442L666 456L659 450L659 432L661 429ZM168 479L163 475L163 457L185 455L187 466L169 479ZM349 471L343 459L346 451L362 445L369 451L362 471L357 474L357 474ZM362 471L369 451L376 451L390 458L378 470ZM391 458L401 444L404 443L421 455L406 473L403 474ZM557 471L555 460L571 440L581 464L562 471ZM169 479L187 466L195 478L190 490L184 491ZM238 499L228 488L232 477L244 470L256 477L260 487ZM406 490L401 482L403 474L406 473L427 476L429 489ZM521 486L524 481L537 472L549 477L550 491L540 497ZM137 503L148 492L161 497L166 505L164 510ZM198 506L197 498L218 492L218 512L215 514L210 516ZM261 503L262 489L276 489L286 498L274 512ZM297 522L287 498L299 492L310 507L299 522ZM459 521L450 504L454 492L460 491L467 494L468 503ZM468 503L467 494L480 489L490 494L492 503L482 513ZM577 514L575 511L583 491L591 488L596 491L601 503L596 512ZM186 522L187 517L198 506L210 516L203 531ZM338 528L338 514L362 508L364 508L362 527L352 538ZM390 534L381 523L375 507L383 506L400 512ZM411 521L403 511L406 506L427 507L430 518L428 522ZM440 518L444 506L450 504L459 521L459 525L455 526ZM556 526L554 517L561 508L575 511L577 514L577 532ZM580 537L577 532L577 514L596 512L597 517ZM608 529L597 517L596 512L601 503L617 507L621 520L616 530ZM145 542L145 542L163 522L183 523L181 539ZM390 536L390 534L400 512L403 511L411 521L409 538L396 539ZM409 538L411 521L428 522L429 538L420 545ZM475 528L480 522L506 521L507 525L498 539L489 541ZM507 550L498 539L507 525L523 528L523 536ZM580 537L580 537L597 517L608 529L591 541ZM594 547L591 541L608 529L616 530L618 534L610 550ZM661 558L661 560L657 560L618 534L616 530L621 520L635 519ZM275 561L281 544L290 548L297 563L287 569ZM308 563L312 545L324 543L333 553L332 562L324 568ZM561 575L552 554L555 546L573 546L574 554L561 575ZM285 578L287 569L297 563L305 565L305 575L300 583ZM305 575L305 565L308 563L324 568L324 580L318 585ZM324 580L324 568L332 562L345 570L347 576L339 588ZM405 578L412 561L420 556L427 561L431 579L424 588ZM431 579L427 561L446 559L448 560L450 574L448 577ZM561 575L574 554L590 566L581 581L575 582ZM627 578L627 606L620 606L610 601L581 581L590 566L594 564L618 571ZM232 584L242 571L263 577L265 583L247 594ZM371 605L361 596L361 581L370 575L376 578L382 595ZM312 638L282 638L288 600L301 595L302 596L315 631ZM533 639L502 639L498 608L512 598L520 607ZM612 602L612 631L559 631L573 598L610 601ZM396 650L370 613L370 613L387 617L402 625ZM498 651L498 654L453 654L455 614L476 614Z"/><path fill="#f6d2cd" d="M350 180L370 180L373 209L358 223L348 213ZM374 171L406 171L408 176L409 213L405 215L397 211ZM309 192L314 192L324 217L324 219L307 238L303 236L299 217ZM382 227L379 216L397 211L405 215L401 227L391 231ZM408 235L401 227L405 215L409 213L423 215L426 230ZM528 198L533 198L548 230L536 241L532 236ZM529 190L576 190L565 232L562 233L548 230ZM204 218L241 218L248 246L223 267L205 253L204 252ZM240 211L259 211L274 226L277 233L254 252L248 246ZM330 245L332 238L344 230L349 231L348 252L346 253ZM467 252L473 238L485 236L493 238L499 250L491 255ZM536 241L536 241L548 230L562 233L556 253L548 255ZM606 213L635 213L635 243L604 256L595 250L595 232ZM294 272L287 258L310 245L316 251L316 261L302 271ZM342 270L346 253L348 252L364 252L361 269L349 276ZM361 269L364 252L369 250L381 256L383 270L377 277ZM489 278L481 269L480 267L491 255L499 250L504 254L505 259L490 278ZM509 263L505 259L504 254L513 250L525 251L534 268L533 269ZM266 279L265 270L272 267L291 277L287 284L278 287ZM511 279L509 263L533 269L533 285L527 289ZM533 285L533 269L534 268L547 258L556 278L553 283L544 288ZM256 300L257 287L266 279L278 287L271 303L268 303ZM613 304L617 284L620 281L637 296L635 304L623 310ZM664 271L680 271L680 314L644 310L635 304L637 296ZM170 331L170 331L179 308L192 306L194 308L195 311L185 331ZM319 338L306 319L312 307L318 305L330 307L333 325ZM504 332L489 315L493 306L501 303L516 306L517 313ZM517 313L516 306L520 302L538 310L534 321L522 319ZM541 327L534 321L538 310L551 307L559 313L559 314ZM182 351L170 332L170 331L185 331L197 338ZM214 348L206 342L204 338L210 324L219 321L229 327L233 338ZM233 338L229 327L246 317L254 325L245 347ZM296 339L289 325L306 319L319 338L319 341L307 347ZM154 353L170 332L182 351L182 358L166 364ZM217 355L214 348L233 338L245 347L245 347L244 351L232 365ZM352 351L351 348L358 335L372 339L373 341L371 353L362 358ZM439 365L434 358L436 345L442 343L455 347L460 357ZM498 360L504 336L516 340L514 363L509 364ZM514 363L516 340L525 338L530 341L532 360L524 365L524 365ZM532 360L530 341L539 335L561 348L558 357L549 364ZM558 357L561 348L565 343L577 343L586 362L575 369ZM685 327L706 327L706 355L671 369L669 366L666 348ZM299 377L296 364L296 363L305 351L321 368L320 373L307 379ZM402 378L399 362L413 358L421 363L421 381L406 382ZM421 381L421 363L434 358L439 365L440 374L429 384ZM597 372L595 363L601 355L617 360L611 377L606 380ZM151 397L169 381L175 385L176 390L173 401ZM207 406L199 399L198 395L204 383L210 381L219 382L224 392ZM287 398L287 396L287 387L287 387L299 377L307 379L316 396L312 405ZM420 407L405 392L406 382L421 381L429 384L433 397ZM500 406L492 399L493 388L506 385L518 392L519 394ZM155 418L148 398L151 397L173 401L176 417L158 420L157 420ZM176 417L173 401L176 390L198 395L199 399L180 419ZM312 411L312 405L316 396L330 396L340 405L324 419ZM404 415L395 403L405 392L420 407L416 416ZM573 413L572 400L583 392L589 396L591 407L577 414ZM606 416L609 395L629 397L628 413L622 416ZM628 413L629 397L630 396L641 392L653 396L649 412L636 416ZM191 438L184 430L180 419L209 416L210 426ZM210 426L209 416L210 412L226 410L233 420L218 430ZM326 434L324 419L340 405L342 406L347 421L344 429L337 435ZM432 437L437 421L446 416L453 418L453 424L445 441ZM453 424L453 418L459 414L476 419L479 433L468 439ZM479 433L476 419L481 414L494 419L497 427L479 434ZM497 427L494 419L501 407L515 420L511 431L506 432ZM605 436L598 425L601 418L606 416L622 416L622 435ZM192 446L191 438L210 426L218 430L220 438L207 447L197 448ZM334 459L318 445L318 440L326 434L337 435L346 451L343 459ZM346 451L337 435L344 429L362 438L362 445ZM404 443L418 430L431 438L424 455L421 455ZM98 492L98 446L124 449L141 457L139 474ZM266 468L259 449L275 450L282 455L283 464ZM285 467L283 464L282 455L291 446L310 456L310 459L294 470ZM406 473L421 455L424 455L432 462L433 467L427 476ZM504 466L501 453L529 447L529 447L528 453L514 465ZM627 471L627 448L629 445L633 444L645 452L640 469L634 476ZM218 492L205 475L210 468L218 466L232 477L228 488ZM260 487L256 477L266 468L283 464L285 467L276 489L262 489ZM286 498L276 489L285 467L294 470L302 486L299 492L287 498ZM302 486L294 470L310 459L320 470L320 475L314 484ZM335 494L336 480L349 471L357 474L346 494ZM382 483L378 470L390 458L391 458L403 474L401 482L392 486ZM448 488L447 476L450 473L463 472L460 491L454 492ZM460 491L463 472L472 463L476 464L480 468L480 489L467 494ZM504 484L501 471L504 466L514 465L524 481L521 486L516 489ZM575 490L562 471L581 464L583 465L588 469L591 488L583 491ZM608 485L616 472L627 471L634 476L635 479L627 495ZM218 512L218 492L218 492L228 488L238 499L238 501L234 510ZM431 501L432 492L448 488L454 492L450 504L444 506ZM492 503L490 494L504 484L516 489L517 501L504 512ZM534 513L533 511L540 497L550 491L557 497L561 508L554 517ZM227 529L215 514L218 512L234 510L239 525ZM299 522L310 507L328 505L328 506L318 524L304 527ZM459 525L459 521L468 503L482 513L480 522L475 528L468 529ZM528 525L534 513L554 517L556 526L552 532L539 532ZM621 520L617 507L627 496L643 507L635 519ZM223 537L227 529L239 525L243 527L250 541L240 547ZM355 547L352 543L352 538L362 527L368 530L381 541L376 551L374 552ZM429 538L428 522L430 518L440 518L455 526L448 535L438 539ZM180 577L146 577L146 542L181 539L192 550ZM219 557L212 544L223 537L240 547L235 556ZM297 563L290 548L307 540L312 545L308 563L305 565ZM398 555L396 539L409 538L420 545L420 556L412 561ZM509 556L507 550L523 536L530 553L522 560ZM265 583L263 577L267 563L275 561L287 569L285 578L276 588L272 588ZM347 576L345 570L353 563L368 568L370 575L361 581ZM370 575L368 568L374 552L376 551L388 562L389 571L376 578ZM389 571L388 562L398 555L412 561L405 578L403 579ZM450 574L448 560L457 554L465 553L480 565L476 575ZM254 627L253 627L247 594L265 583L272 588ZM276 588L285 578L300 583L301 595L288 600ZM316 593L318 585L324 580L339 588L340 590L323 600ZM409 610L395 596L395 595L403 579L405 578L424 588L425 593ZM425 593L424 588L431 579L448 577L451 592L429 595ZM451 592L448 577L450 574L476 575L476 578L466 593L456 597ZM466 593L476 578L489 591L489 599L479 606ZM253 631L207 631L207 599L230 584L232 584L247 594L253 629ZM282 634L253 634L253 629L272 588L276 588L288 600ZM315 631L302 596L316 593L323 600L325 618ZM325 618L323 600L340 590L345 597L342 612ZM387 617L395 596L409 610L410 618L402 625ZM437 611L429 595L451 592L456 597L453 612ZM502 641L492 641L476 614L479 606L489 599L498 608ZM355 655L312 655L312 640L315 631L325 618L342 612L360 622ZM447 664L394 664L396 650L402 625L410 618L426 623ZM453 653L441 653L426 623L437 611L453 612L455 614Z"/><path fill="#ffffff" d="M370 177L378 177L397 211L379 216L373 209ZM452 252L453 233L464 229L473 238L467 252L465 254ZM513 250L519 235L532 236L536 241L536 241L525 251ZM556 253L562 233L565 232L575 237L578 249L562 257ZM578 249L575 237L595 232L595 250L585 254ZM272 267L284 256L287 258L294 272L291 277ZM447 270L446 254L452 252L465 254L468 262L461 275ZM569 269L562 257L578 249L585 254L582 265L574 271ZM582 265L585 254L595 250L604 256L603 266L597 273ZM598 281L597 273L603 266L623 274L620 281L617 284ZM150 288L150 268L194 291L192 306L179 308ZM339 302L349 278L367 288L350 306ZM501 303L501 285L511 279L527 289L520 302L516 306ZM219 321L224 302L239 301L245 305L246 317L229 327ZM286 324L282 311L297 296L303 298L312 307L306 319L289 325ZM559 314L559 313L568 301L591 310L582 318L563 318ZM245 347L245 347L254 325L261 324L275 331L272 346L270 349ZM182 358L182 351L197 338L204 338L206 342L194 361L190 363ZM261 386L258 378L260 372L270 364L271 365L287 387L287 387ZM550 382L549 364L558 357L575 369L576 381L559 385ZM466 395L485 380L493 388L492 399L483 404ZM717 367L717 416L704 416L674 399L673 397L688 378ZM112 408L112 382L126 386L148 398L155 418L132 419ZM446 416L434 398L459 390L464 395L459 414L453 418ZM459 414L464 395L466 395L483 404L481 414L476 419ZM659 418L649 412L653 396L667 392L673 397L674 399ZM240 435L240 422L256 414L261 416L264 429L258 441ZM264 429L261 416L272 414L290 426L290 430L275 435ZM314 437L304 417L312 411L324 419L326 434L318 440ZM344 429L347 421L367 421L369 427L362 438ZM244 458L233 447L240 435L258 441L259 449ZM275 450L275 435L290 430L293 437L291 446L282 455ZM362 445L362 438L369 427L382 430L376 451L369 451ZM472 463L462 453L468 439L479 433L479 434L489 449L476 464ZM555 460L545 448L561 432L571 439L571 440ZM210 468L197 448L207 447L220 457L218 466ZM244 470L244 458L259 449L259 449L266 468L256 477ZM450 473L453 453L462 453L472 463L463 472ZM537 472L528 453L529 447L545 448L555 460L557 471L549 477ZM166 505L161 497L168 479L169 479L184 491L175 502ZM310 507L299 492L302 486L314 484L328 504L328 505ZM362 508L346 494L357 474L357 474L367 491L367 506L364 508ZM163 522L164 510L166 505L175 502L187 517L186 522L183 523ZM274 519L274 512L286 498L287 498L297 522L285 527ZM362 527L364 508L367 506L375 507L381 523L368 530ZM676 536L676 550L655 550L635 519L643 507L647 506ZM250 541L243 527L253 518L266 522L262 540L255 543ZM262 540L266 522L274 519L285 527L280 542ZM333 553L324 543L328 534L338 528L352 538L352 543ZM457 554L448 535L455 526L459 525L468 529L465 553ZM530 553L523 536L523 528L528 525L539 532L540 542L530 553ZM242 568L235 556L240 547L250 541L255 543L258 554ZM376 551L381 541L390 536L396 539L398 555L388 562ZM574 554L573 546L580 537L591 541L594 547L594 564L590 566ZM594 564L594 547L610 550L618 571ZM345 597L340 590L339 588L347 576L361 581L361 596ZM382 595L376 578L389 571L403 579L395 595ZM370 613L371 605L382 595L395 595L395 596L387 617ZM410 618L409 610L425 593L429 595L437 611L426 623ZM455 614L453 612L456 597L466 593L479 606L476 614ZM395 661L354 661L360 622L370 613L396 650Z"/><path d="M405 165L440 165L440 182L427 206L408 176ZM440 166L455 166L462 200L456 210L448 210L440 182ZM455 163L499 163L499 182L484 198L462 200ZM259 184L311 184L311 186L299 217L274 226L259 211ZM311 179L350 179L348 213L336 218L324 217L311 186ZM350 180L370 180L373 209L358 223L348 213ZM370 177L378 177L397 211L379 216L373 209ZM374 171L406 171L408 176L409 213L405 215L397 211ZM408 176L427 206L427 212L423 215L409 213ZM427 212L427 206L440 182L448 210L446 212ZM456 210L462 200L484 198L479 213L479 213L464 218ZM498 183L520 183L520 195L510 217L503 222L479 213L484 198ZM280 236L277 233L274 226L299 217L303 236ZM309 192L314 192L324 217L324 219L307 238L303 236L299 217ZM332 238L324 219L324 217L336 218L344 230ZM344 230L336 218L348 213L358 223L358 226L349 231ZM368 237L358 226L358 223L373 209L379 216L382 227ZM382 227L379 216L397 211L405 215L401 227L391 231ZM408 235L401 227L405 215L409 213L423 215L426 230ZM431 237L426 230L423 215L427 212L446 212L444 230ZM444 230L446 212L448 210L456 210L464 218L464 229L453 233ZM473 238L464 229L464 218L479 213L485 236ZM485 236L479 213L479 213L503 222L493 238ZM518 200L528 200L532 236L519 235L510 217ZM528 198L533 198L548 230L536 241L532 236ZM529 190L576 190L565 232L562 233L548 230ZM574 198L610 198L610 207L595 232L575 237L565 232ZM204 218L241 218L248 246L223 267L205 253L204 252ZM240 211L259 211L274 226L277 233L254 252L248 246ZM277 233L280 236L280 249L257 257L254 252ZM287 258L284 256L280 249L280 236L303 236L307 238L310 245ZM310 245L307 238L324 219L332 238L330 245L316 251ZM330 245L332 238L344 230L349 231L348 252L346 253ZM348 252L349 231L358 226L368 237L369 250L364 252ZM369 250L368 237L382 227L391 231L391 249L381 256ZM391 249L391 231L401 227L408 235L409 245L394 249ZM409 245L408 235L426 230L431 237L431 250L424 255ZM431 250L431 237L444 230L453 233L452 252L446 254ZM452 252L453 233L464 229L473 238L467 252L465 254ZM467 252L473 238L485 236L493 238L499 250L491 255ZM499 250L493 238L503 222L510 217L519 235L513 250L504 254ZM513 250L519 235L532 236L536 241L536 241L525 251ZM536 241L536 241L548 230L562 233L556 253L548 255ZM556 253L562 233L565 232L575 237L578 249L562 257ZM578 249L575 237L595 232L595 250L585 254ZM606 213L635 213L635 243L604 256L595 250L595 232ZM223 268L223 267L248 246L254 252L257 257L257 264L241 273L228 270ZM257 264L257 257L280 249L284 256L272 267L265 270ZM272 267L284 256L287 258L294 272L291 277ZM294 272L287 258L310 245L316 251L316 261L302 271ZM316 261L316 251L330 245L346 253L342 270L328 273ZM342 270L346 253L348 252L364 252L361 269L349 276ZM361 269L364 252L369 250L381 256L383 270L377 277ZM383 270L381 256L391 249L394 249L409 266L394 274ZM409 266L394 249L409 245L424 255L422 260L413 266ZM435 280L422 260L424 255L431 250L446 254L447 270L437 282ZM447 270L446 254L452 252L465 254L468 262L461 275ZM468 262L465 254L467 252L491 255L480 267ZM489 278L481 269L480 267L491 255L499 250L504 254L505 259L490 278ZM509 263L505 259L504 254L513 250L525 251L534 268L533 269ZM534 268L525 251L536 241L548 255L547 258ZM556 278L547 258L548 255L556 253L562 257L569 269ZM569 269L562 257L578 249L585 254L582 265L574 271ZM582 265L585 254L595 250L604 256L603 266L597 273ZM644 239L644 254L623 274L603 266L604 256ZM159 248L201 248L205 253L196 289L194 291L159 272ZM205 253L223 267L223 268L217 291L196 289ZM239 300L228 270L241 273L246 282ZM246 282L241 273L257 264L265 270L266 279L257 287ZM266 279L265 270L272 267L291 277L287 284L278 287ZM297 296L287 284L291 277L294 272L302 271L310 284L303 298ZM310 284L302 271L316 261L328 273L326 277L321 282ZM339 302L326 277L328 273L342 270L349 276L349 278L339 302ZM349 278L349 276L361 269L377 277L372 288L367 288ZM374 292L372 288L377 277L383 270L394 274L401 292L396 298ZM401 292L394 274L409 266L413 266L415 287L412 292ZM415 287L413 266L422 260L435 280ZM440 288L437 282L447 270L461 275L464 285ZM464 285L461 275L468 262L480 267L481 269L466 286L465 286ZM466 286L481 269L489 278L483 286ZM490 278L505 259L509 263L511 279L501 285ZM511 279L509 263L533 269L533 285L527 289ZM533 285L533 269L534 268L547 258L556 278L553 283L544 288ZM553 283L556 278L569 269L574 271L578 288L571 292ZM578 288L574 271L582 265L597 273L598 281L591 291ZM598 281L597 273L603 266L623 274L620 281L617 284ZM645 254L663 254L663 272L637 296L620 281L623 274ZM150 288L150 268L194 291L192 306L179 308ZM194 308L192 306L194 291L196 289L217 291L220 298ZM220 298L217 291L223 268L228 270L239 300L239 301L224 302ZM239 301L239 300L246 282L257 287L256 300L245 305ZM256 300L257 287L266 279L278 287L271 303L268 303ZM282 311L271 303L278 287L287 284L297 296ZM303 298L310 284L321 282L318 305L312 307ZM318 305L321 282L326 277L339 302L330 307ZM339 302L349 278L367 288L350 306ZM353 309L350 306L367 288L372 288L374 292L374 299L366 313ZM374 299L374 292L396 298L395 304L385 315ZM407 316L395 304L396 298L401 292L412 292L420 302ZM420 302L412 292L415 287L435 280L437 282L440 288L438 303L434 307ZM438 303L440 288L464 285L465 286L465 298L447 305ZM467 301L465 298L465 286L466 286L483 286L488 301ZM488 301L483 286L489 278L490 278L501 285L501 303L493 306ZM501 303L501 285L511 279L527 289L520 302L516 306ZM520 302L527 289L533 285L544 288L551 307L538 310ZM551 307L544 288L553 283L571 292L568 301L559 313ZM568 301L571 292L578 288L591 291L596 304L595 307L591 310ZM596 304L591 291L598 281L617 284L613 304ZM613 304L617 284L620 281L637 296L635 304L623 310ZM664 271L680 271L680 314L644 310L635 304L637 296ZM137 284L144 284L179 308L170 331L137 308ZM170 331L170 331L179 308L192 306L194 308L195 311L185 331ZM195 311L194 308L220 298L224 302L219 321L210 324ZM219 321L224 302L239 301L245 305L246 317L229 327ZM246 317L245 305L256 300L268 303L261 324L254 325ZM261 324L268 303L271 303L282 311L286 324L275 331ZM286 324L282 311L297 296L303 298L312 307L306 319L289 325ZM319 338L306 319L312 307L318 305L330 307L333 325ZM333 325L330 307L339 302L339 302L350 306L353 309L350 328L340 328ZM357 334L350 328L353 309L366 313L368 317ZM368 317L366 313L374 299L385 315L383 320L381 321ZM383 320L385 315L395 304L407 316L407 319L396 329ZM407 319L407 316L420 302L434 307L433 314L422 328ZM446 327L433 314L434 307L438 303L447 305L461 323ZM461 323L447 305L465 298L467 301L469 323L464 324ZM469 323L467 301L488 301L493 306L489 315L475 325ZM504 332L489 315L493 306L501 303L516 306L517 313ZM517 313L516 306L520 302L538 310L534 321L522 319ZM541 327L534 321L538 310L551 307L559 313L559 314ZM559 314L559 313L568 301L591 310L582 318L563 318ZM587 333L582 318L591 310L595 307L604 330ZM604 330L595 307L596 304L613 304L623 310L623 321L608 332ZM623 321L623 310L635 304L644 310L640 330L633 329ZM678 314L678 318L644 333L640 330L644 310ZM123 304L130 304L170 331L170 331L170 332L154 353L123 352ZM182 351L170 332L170 331L185 331L197 338ZM185 331L195 311L210 324L204 338L197 338ZM214 348L206 342L204 338L210 324L219 321L229 327L233 338ZM233 338L229 327L246 317L254 325L245 347ZM245 347L245 347L254 325L261 324L275 331L272 346L270 349ZM272 346L275 331L286 324L289 325L296 339L284 350ZM296 339L289 325L306 319L319 338L319 341L307 347ZM319 341L319 338L333 325L340 328L340 345L327 349ZM340 345L340 328L350 328L357 334L358 335L351 348ZM358 335L357 334L368 317L381 321L372 339ZM373 341L372 339L381 321L383 320L396 329L397 339L394 344ZM397 339L396 329L407 319L422 328L422 338L419 340ZM422 338L422 328L433 314L446 327L442 343L436 345ZM442 343L446 327L461 323L464 324L456 345L455 347ZM456 345L464 324L469 323L475 325L481 337L480 339ZM481 337L475 325L489 315L504 332L504 335ZM504 336L504 335L504 332L517 313L522 319L525 338L516 340ZM525 338L522 319L534 321L541 327L539 335L530 341ZM539 335L541 327L559 314L563 318L565 343L561 348ZM565 343L563 318L582 318L587 333L582 340L577 343ZM582 340L587 333L604 330L608 332L609 335L600 351ZM609 335L608 332L623 321L633 329L626 343L620 344ZM626 343L633 329L640 330L644 333L646 349L638 352ZM686 314L686 326L666 348L649 350L646 349L644 333L684 315ZM154 353L170 332L182 351L182 358L166 364ZM182 358L182 351L197 338L204 338L206 342L194 361L190 363ZM194 361L206 342L214 348L217 355L209 364ZM217 355L214 348L233 338L245 347L245 347L244 351L232 365ZM244 351L245 347L270 349L270 364L260 372ZM270 364L270 349L272 346L284 350L296 363L296 364L271 365ZM296 363L284 350L296 339L307 347L305 351ZM305 351L307 347L319 341L327 349L329 357L321 368ZM329 357L327 349L340 345L351 348L352 351L341 364ZM352 351L351 348L358 335L372 339L373 341L371 353L362 358ZM371 353L373 341L394 344L395 359L383 362ZM395 359L394 344L397 339L419 340L413 358L399 362ZM413 358L419 340L422 338L436 345L434 358L421 363ZM439 365L434 358L436 345L442 343L455 347L460 357ZM462 359L460 357L455 347L456 345L480 339L481 357ZM481 357L480 339L481 337L504 335L504 336L498 360L487 362ZM498 360L504 336L516 340L514 363L509 364ZM514 363L516 340L525 338L530 341L532 360L524 365L524 365ZM532 360L530 341L539 335L561 348L558 357L549 364ZM558 357L561 348L565 343L577 343L586 362L575 369ZM586 362L577 343L582 340L600 351L601 355L595 363ZM601 355L600 351L609 335L620 344L618 360L617 360ZM618 360L620 344L626 343L638 352L631 363ZM652 367L649 350L666 348L669 366ZM685 327L706 327L706 355L671 369L669 366L666 348ZM122 385L122 352L154 353L166 364L166 375L126 386ZM175 385L169 381L166 375L166 364L182 358L190 363L192 372ZM192 372L190 363L194 361L209 364L210 381L204 383ZM210 381L209 364L217 355L232 365L232 368L219 382ZM232 368L232 365L244 351L260 372L258 378L243 376ZM261 386L258 378L260 372L270 364L271 365L287 387L287 387ZM287 387L271 365L296 364L299 377ZM299 377L296 364L296 363L305 351L321 368L320 373L307 379ZM320 373L321 368L329 357L341 364L345 376L334 380ZM345 376L341 364L352 351L362 358L361 374L350 377ZM361 374L362 358L371 353L383 362L376 372L363 375ZM386 383L376 372L383 362L395 359L399 362L402 378ZM402 378L399 362L413 358L421 363L421 381L406 382ZM421 381L421 363L434 358L439 365L440 374L429 384ZM440 374L439 365L460 357L462 359L458 376L457 378ZM458 376L462 359L481 357L487 362L485 376ZM485 380L485 376L487 362L498 360L509 364L506 385L493 388ZM506 385L509 364L514 363L524 365L518 392ZM539 393L524 365L532 360L549 364L550 382ZM550 382L549 364L558 357L575 369L576 381L559 385ZM579 384L576 381L575 369L586 362L595 363L597 372ZM597 372L595 363L601 355L617 360L611 377L606 380ZM611 377L617 360L618 360L631 363L633 369L624 382ZM633 369L631 363L638 352L646 349L649 350L652 367L648 373L645 374ZM648 373L652 367L669 366L671 369L671 376L667 386ZM712 353L712 369L688 378L671 376L671 369ZM126 386L166 375L169 381L151 397L148 398ZM151 397L169 381L175 385L176 390L173 401ZM176 390L175 385L192 372L204 383L198 395ZM207 406L199 399L198 395L204 383L210 381L219 382L224 392ZM224 392L219 382L232 368L243 376L237 395L230 397ZM237 395L243 376L258 378L261 386L255 401L254 403ZM255 401L261 386L287 387L287 396ZM287 398L287 396L287 387L287 387L299 377L307 379L316 396L312 405ZM316 396L307 379L320 373L334 380L330 396ZM330 396L334 380L345 376L350 377L350 401L342 406L340 405ZM350 401L350 377L361 374L363 375L370 392L353 401ZM370 392L363 375L376 372L386 383L380 396ZM382 402L380 396L386 383L402 378L406 382L405 392L395 403ZM420 407L405 392L406 382L421 381L429 384L433 397ZM433 397L429 384L440 374L457 378L459 390L434 398ZM459 390L457 378L458 376L485 376L485 380L466 395L464 395ZM466 395L485 380L493 388L492 399L483 404ZM500 406L492 399L493 388L506 385L518 392L519 394ZM519 394L518 392L524 365L524 365L539 393L537 395L526 398ZM552 413L537 395L539 393L550 382L559 385L563 399ZM563 399L559 385L576 381L579 384L583 392L572 400ZM583 392L579 384L597 372L606 380L603 389L589 396ZM609 395L603 389L606 380L611 377L624 382L630 396L629 397ZM630 396L624 382L633 369L645 374L641 392ZM641 392L645 374L648 373L667 386L667 392L653 396ZM667 392L667 386L671 376L688 378L673 397ZM717 367L717 416L704 416L674 399L673 397L688 378ZM112 408L112 382L126 386L148 398L155 418L132 419ZM155 418L148 398L151 397L173 401L176 417L158 420L157 420ZM176 417L173 401L176 390L198 395L199 399L180 419ZM180 419L180 419L199 399L207 406L210 412L209 416ZM210 412L207 406L224 392L230 397L226 410ZM233 420L226 410L230 397L237 395L254 403L256 414L240 422ZM256 414L254 403L255 401L287 396L287 398L287 398L272 414L261 416ZM272 414L287 398L297 419L290 426ZM297 419L287 398L287 398L312 405L312 411L304 417ZM312 411L312 405L316 396L330 396L340 405L324 419ZM347 421L342 406L350 401L353 401L368 414L367 421ZM368 414L353 401L370 392L380 396L382 402L381 403ZM388 428L381 403L382 402L395 403L404 415L392 429ZM404 415L395 403L405 392L420 407L416 416ZM417 419L416 416L420 407L433 397L434 398L446 416L437 421ZM446 416L434 398L459 390L464 395L459 414L453 418ZM459 414L464 395L466 395L483 404L481 414L476 419ZM481 414L483 404L492 399L500 406L501 407L494 419ZM501 407L500 406L519 394L526 398L523 413L515 420ZM523 413L526 398L537 395L552 413L553 418L536 424ZM558 422L553 418L552 413L563 399L572 400L573 413ZM573 413L572 400L583 392L589 396L591 407L577 414ZM591 407L589 396L603 389L609 395L606 416L601 418ZM606 416L609 395L629 397L628 413L622 416ZM628 413L629 397L630 396L641 392L653 396L649 412L636 416ZM659 418L649 412L653 396L667 392L673 397L674 399ZM101 447L101 402L132 419L139 433L124 449ZM139 433L132 419L155 418L157 420L150 434ZM166 441L158 420L176 417L180 419L180 419L184 430ZM191 438L184 430L180 419L209 416L210 426ZM210 426L209 416L210 412L226 410L233 420L218 430ZM220 438L218 430L233 420L240 422L240 435L233 447L231 447ZM240 435L240 422L256 414L261 416L264 429L258 441ZM264 429L261 416L272 414L290 426L290 430L275 435ZM293 437L290 430L290 426L297 419L304 417L314 437ZM314 437L304 417L312 411L324 419L326 434L318 440ZM326 434L324 419L340 405L342 406L347 421L344 429L337 435ZM344 429L347 421L367 421L369 427L362 438ZM369 427L367 421L368 414L381 403L388 428L382 430ZM401 444L392 429L404 415L416 416L417 419L418 430L404 443ZM418 430L417 419L437 421L432 437L431 438ZM432 437L437 421L446 416L453 418L453 424L445 441ZM453 424L453 418L459 414L476 419L479 433L468 439ZM479 433L476 419L481 414L494 419L497 427L479 434ZM497 427L494 419L501 407L515 420L511 431L506 432ZM511 431L515 420L523 413L536 424L528 444ZM528 444L528 444L536 424L553 418L558 422L558 424ZM561 432L558 424L558 422L573 413L577 414L586 431L583 434L571 439ZM586 431L577 414L591 407L601 418L598 425ZM605 436L598 425L601 418L606 416L622 416L622 435ZM629 445L622 435L622 416L628 413L636 416L642 430L633 444ZM642 430L636 416L649 412L659 418L661 429L659 432ZM699 413L699 426L661 429L659 418L674 399ZM124 449L139 433L150 434L154 452L141 457ZM154 452L150 434L157 420L158 420L166 441L158 453ZM163 457L158 453L166 441L184 430L191 438L192 446L185 455ZM192 446L191 438L210 426L218 430L220 438L207 447L197 448ZM207 447L220 438L231 447L220 457ZM244 458L233 447L240 435L258 441L259 449ZM259 449L258 441L264 429L275 435L275 450L259 449ZM275 450L275 435L290 430L293 437L291 446L282 455ZM291 446L293 437L314 437L318 440L318 445L310 456ZM334 459L318 445L318 440L326 434L337 435L346 451L343 459ZM346 451L337 435L344 429L362 438L362 445ZM362 445L362 438L369 427L382 430L376 451L369 451ZM376 451L382 430L388 428L392 429L401 444L391 458L390 458ZM404 443L418 430L431 438L424 455L421 455ZM432 462L424 455L431 438L432 437L445 441L450 452ZM450 452L445 441L453 424L468 439L462 453L453 453ZM472 463L462 453L468 439L479 433L479 434L489 449L476 464ZM489 449L479 434L497 427L506 432L497 448ZM501 453L497 448L506 432L511 431L528 444L528 444L529 447ZM529 447L528 444L558 424L561 432L545 448L529 447ZM555 460L545 448L561 432L571 439L571 440ZM581 464L571 440L571 439L583 434L593 448L583 465ZM593 448L583 434L586 431L598 425L605 436L604 447ZM609 452L604 447L605 436L622 435L629 445L627 448ZM633 444L642 430L659 432L659 450L645 452ZM702 425L702 442L666 456L659 450L659 432L661 429ZM98 492L98 446L124 449L141 457L139 474ZM139 474L141 457L154 452L158 453L163 457L163 475L148 482ZM168 479L163 475L163 457L185 455L187 466L169 479ZM195 478L187 466L185 455L192 446L197 448L210 468L205 475ZM210 468L197 448L207 447L220 457L218 466ZM218 466L220 457L231 447L233 447L244 458L244 470L232 477ZM244 470L244 458L259 449L259 449L266 468L256 477ZM266 468L259 449L275 450L282 455L283 464ZM285 467L283 464L282 455L291 446L310 456L310 459L294 470ZM310 459L310 456L318 445L334 459L320 470ZM320 475L320 470L334 459L343 459L349 471L336 480ZM349 471L343 459L346 451L362 445L369 451L362 471L357 474L357 474ZM362 471L369 451L376 451L390 458L378 470ZM391 458L401 444L404 443L421 455L406 473L403 474ZM406 473L421 455L424 455L432 462L433 467L427 476ZM433 467L432 462L450 452L453 453L450 473L447 476ZM450 473L453 453L462 453L472 463L463 472ZM480 468L476 464L489 449L497 448L501 453L504 466L501 471ZM504 466L501 453L529 447L529 447L528 453L514 465ZM524 481L514 465L528 453L537 472ZM537 472L528 453L529 447L545 448L555 460L557 471L549 477ZM557 471L555 460L571 440L581 464L562 471ZM583 465L593 448L604 447L609 452L607 462L588 469ZM607 462L609 452L627 448L627 471L616 472ZM627 471L627 448L629 445L633 444L645 452L640 469L634 476ZM640 469L645 452L659 450L666 456L665 464L661 468ZM711 438L711 494L692 494L665 464L666 456ZM114 517L107 517L107 488L139 474L148 482L148 492L137 503ZM148 492L148 482L163 475L168 479L161 497ZM169 479L187 466L195 478L190 490L184 491ZM197 498L190 490L195 478L205 475L218 492L218 492ZM218 492L205 475L210 468L218 466L232 477L228 488ZM238 499L228 488L232 477L244 470L256 477L260 487ZM260 487L256 477L266 468L283 464L285 467L276 489L262 489ZM286 498L276 489L285 467L294 470L302 486L299 492L287 498ZM302 486L294 470L310 459L320 470L320 475L314 484ZM314 484L320 475L336 480L335 494L328 504ZM335 494L336 480L349 471L357 474L346 494ZM367 491L357 474L362 471L378 470L382 483ZM382 483L378 470L390 458L391 458L403 474L401 482L392 486ZM406 490L401 482L403 474L406 473L427 476L429 489ZM432 492L429 489L427 476L433 467L447 476L448 488ZM448 488L447 476L450 473L463 472L460 491L454 492ZM460 491L463 472L472 463L476 464L480 468L480 489L467 494ZM480 489L480 468L501 471L504 484L490 494ZM504 484L501 471L504 466L514 465L524 481L521 486L516 489ZM521 486L524 481L537 472L549 477L550 491L540 497ZM557 497L550 491L549 477L557 471L562 471L575 490ZM575 490L562 471L581 464L583 465L588 469L591 488L583 491ZM591 488L588 469L607 462L616 472L608 485L596 491ZM608 485L616 472L627 471L634 476L635 479L627 495ZM635 479L634 476L640 469L661 468L652 488ZM694 495L694 497L655 492L652 488L661 468L665 464ZM137 503L148 492L161 497L166 505L164 510ZM166 505L161 497L168 479L169 479L184 491L175 502ZM187 517L175 502L184 491L190 490L197 498L198 506ZM198 506L197 498L218 492L218 512L215 514L210 516ZM218 512L218 492L218 492L228 488L238 499L238 501L234 510ZM238 501L238 499L260 487L262 489L261 503L254 510ZM261 503L262 489L276 489L286 498L274 512ZM297 522L287 498L299 492L310 507L299 522ZM310 507L299 492L302 486L314 484L328 504L328 505ZM338 514L328 506L328 505L328 504L335 494L346 494L362 508ZM362 508L346 494L357 474L357 474L367 491L367 506L364 508ZM367 506L367 491L382 483L392 486L383 506L375 507ZM383 506L392 486L401 482L406 490L406 506L403 511L400 512ZM406 506L406 490L429 489L432 492L431 501L427 507ZM431 501L432 492L448 488L454 492L450 504L444 506ZM459 521L450 504L454 492L460 491L467 494L468 503ZM468 503L467 494L480 489L490 494L492 503L482 513ZM492 503L490 494L504 484L516 489L517 501L504 512ZM517 501L516 489L521 486L540 497L533 511ZM534 513L533 511L540 497L550 491L557 497L561 508L554 517ZM561 508L557 497L575 490L583 491L575 511ZM577 514L575 511L583 491L591 488L596 491L601 503L596 512ZM601 503L596 491L608 485L627 495L627 496L617 507ZM627 496L627 495L635 479L652 488L655 492L647 506L643 507ZM691 496L691 536L676 536L647 506L655 492ZM145 541L121 541L121 513L137 503L164 510L163 522ZM163 522L164 510L166 505L175 502L187 517L186 522L183 523ZM186 522L187 517L198 506L210 516L203 531ZM227 529L215 514L218 512L234 510L239 525ZM239 525L234 510L238 501L254 510L253 518L243 527ZM253 518L254 510L261 503L274 512L274 519L266 522ZM274 519L274 512L286 498L287 498L297 522L285 527ZM299 522L310 507L328 505L328 506L318 524L304 527ZM318 524L328 506L338 514L338 528L328 534ZM338 528L338 514L362 508L364 508L362 527L352 538ZM362 527L364 508L367 506L375 507L381 523L368 530ZM390 534L381 523L375 507L383 506L400 512ZM411 521L403 511L406 506L427 507L430 518L428 522ZM430 518L427 507L431 501L444 506L440 518ZM440 518L444 506L450 504L459 521L459 525L455 526ZM459 525L459 521L468 503L482 513L480 522L475 528L468 529ZM480 522L482 513L492 503L504 512L506 521ZM507 525L506 521L504 512L517 501L533 511L534 513L528 525L523 528ZM528 525L534 513L554 517L556 526L552 532L539 532ZM556 526L554 517L561 508L575 511L577 514L577 532ZM580 537L577 532L577 514L596 512L597 517ZM608 529L597 517L596 512L601 503L617 507L621 520L616 530ZM621 520L617 507L627 496L643 507L635 519ZM676 536L676 550L655 550L635 519L643 507L647 506ZM145 542L145 542L163 522L183 523L181 539ZM192 550L181 539L183 523L186 522L203 531L206 542ZM206 542L203 531L210 516L215 514L227 529L223 537L212 544ZM223 537L227 529L239 525L243 527L250 541L240 547ZM250 541L243 527L253 518L266 522L262 540L255 543ZM262 540L266 522L274 519L285 527L280 542ZM281 544L280 542L285 527L297 522L299 522L304 527L307 540L290 548ZM307 540L304 527L318 524L328 534L324 543L312 545ZM333 553L324 543L328 534L338 528L352 538L352 543ZM355 547L352 543L352 538L362 527L368 530L381 541L376 551L374 552ZM381 541L368 530L381 523L390 534L390 536ZM390 536L390 534L400 512L403 511L411 521L409 538L396 539ZM409 538L411 521L428 522L429 538L420 545ZM429 538L428 522L430 518L440 518L455 526L448 535L438 539ZM457 554L448 535L455 526L459 525L468 529L465 553ZM475 528L480 522L506 521L507 525L498 539L489 541ZM507 550L498 539L507 525L523 528L523 536ZM530 553L523 536L523 528L528 525L539 532L540 542L530 553ZM540 542L539 532L552 532L554 545ZM555 546L554 545L552 532L556 526L577 532L580 537L580 537L573 546ZM580 537L580 537L597 517L608 529L591 541ZM594 547L591 541L608 529L616 530L618 534L610 550ZM661 558L661 560L657 560L618 534L616 530L621 520L635 519ZM180 577L146 577L146 542L181 539L192 550ZM192 591L175 591L175 588L192 550L206 542L212 544L219 557L219 557ZM219 557L212 544L223 537L240 547L235 556ZM242 568L235 556L240 547L250 541L255 543L258 554ZM258 554L255 543L262 540L280 542L281 544L275 561L267 563ZM275 561L281 544L290 548L297 563L287 569ZM297 563L290 548L307 540L312 545L308 563L305 565ZM308 563L312 545L324 543L333 553L332 562L324 568ZM332 562L333 553L352 543L355 547L353 563L345 570ZM353 563L355 547L374 552L368 568ZM376 551L381 541L390 536L396 539L398 555L388 562ZM398 555L396 539L409 538L420 545L420 556L412 561ZM420 556L420 545L429 538L438 539L446 559L427 561ZM446 559L438 539L448 535L457 554L448 560ZM465 553L468 529L475 528L489 541L481 564L480 565ZM481 564L489 541L498 539L507 550L509 556L497 566ZM509 556L507 550L523 536L530 553L522 560ZM530 553L540 542L554 545L555 546L552 554L538 556ZM561 575L552 554L555 546L573 546L574 554L561 575ZM574 554L573 546L580 537L591 541L594 547L594 564L590 566ZM594 564L594 547L610 550L618 571ZM649 555L649 579L628 579L618 571L610 550L618 534ZM204 601L188 601L188 595L219 557L230 584ZM230 584L219 557L219 557L235 556L242 568L242 571L232 584ZM242 571L242 568L258 554L267 563L263 577ZM265 583L263 577L267 563L275 561L287 569L285 578L276 588L272 588ZM285 578L287 569L297 563L305 565L305 575L300 583ZM305 575L305 565L308 563L324 568L324 580L318 585ZM324 580L324 568L332 562L345 570L347 576L339 588ZM347 576L345 570L353 563L368 568L370 575L361 581ZM370 575L368 568L374 552L376 551L388 562L389 571L376 578ZM389 571L388 562L398 555L412 561L405 578L403 579ZM405 578L412 561L420 556L427 561L431 579L424 588ZM431 579L427 561L446 559L448 560L450 574L448 577ZM450 574L448 560L457 554L465 553L480 565L476 575ZM489 591L476 578L476 575L480 565L481 564L497 566L508 584ZM508 584L497 566L509 556L522 560L523 579L523 579L511 584ZM523 579L522 560L530 553L530 553L538 556L545 581ZM545 581L538 556L552 554L561 575L548 582ZM561 575L574 554L590 566L581 581L575 582ZM627 578L627 606L620 606L610 601L581 581L590 566L594 564L618 571ZM232 584L242 571L263 577L265 583L247 594ZM254 627L253 627L247 594L265 583L272 588ZM276 588L285 578L300 583L301 595L288 600ZM301 595L300 583L305 575L318 585L316 593L302 596ZM316 593L318 585L324 580L339 588L340 590L323 600ZM345 597L340 590L339 588L347 576L361 581L361 596ZM371 605L361 596L361 581L370 575L376 578L382 595ZM382 595L376 578L389 571L403 579L395 595ZM409 610L395 596L395 595L403 579L405 578L424 588L425 593ZM425 593L424 588L431 579L448 577L451 592L429 595ZM451 592L448 577L450 574L476 575L476 578L466 593L456 597ZM466 593L476 578L489 591L489 599L479 606ZM489 599L489 591L508 584L511 584L512 598L498 608ZM512 598L511 584L523 579L528 596L520 607ZM528 596L523 579L523 579L545 581L548 582L547 600ZM562 624L553 624L547 600L548 582L561 575L561 575L575 582L573 598ZM573 598L575 582L581 581L610 601ZM253 631L207 631L207 599L230 584L232 584L247 594L253 629ZM282 634L253 634L253 629L272 588L276 588L288 600ZM312 638L282 638L288 600L301 595L302 596L315 631ZM315 631L302 596L316 593L323 600L325 618ZM325 618L323 600L340 590L345 597L342 612ZM342 612L345 597L361 596L371 605L370 613L370 613L360 622ZM370 613L371 605L382 595L395 595L395 596L387 617ZM387 617L395 596L409 610L410 618L402 625ZM410 618L409 610L425 593L429 595L437 611L426 623ZM437 611L429 595L451 592L456 597L453 612ZM455 614L453 612L456 597L466 593L479 606L476 614ZM502 641L492 641L476 614L479 606L489 599L498 608ZM533 639L502 639L498 608L512 598L520 607ZM554 631L530 631L520 607L528 596L547 600ZM612 602L612 631L559 631L573 598L610 601ZM355 655L312 655L312 640L315 631L325 618L342 612L360 622ZM395 661L354 661L360 622L370 613L396 650ZM396 650L370 613L370 613L387 617L402 625ZM447 664L394 664L396 650L402 625L410 618L426 623ZM453 653L441 653L426 623L437 611L453 612L455 614ZM498 651L498 654L453 654L455 614L476 614Z" fill="none" stroke="#dca098" stroke-width="1.2" opacity="0.55"/><path d="M475 183l7 -5M408 224l7 -5M523 244l7 -5M326 261l7 -5M388 263l7 -5M431 266l7 -5M514 261l7 -5M182 269l7 -5M209 276l7 -5M294 285l7 -5M449 296l7 -5M599 295l7 -5M251 315l7 -5M355 322l7 -5M238 333l7 -5M276 359l7 -5M336 354l7 -5M302 370l7 -5M348 369l7 -5M247 392l7 -5M317 387l7 -5M266 407l7 -5M318 408l7 -5M659 405l7 -5M227 436l7 -5M403 430l7 -5M586 421l7 -5M173 448l7 -5M201 441l7 -5M557 446l7 -5M148 466l7 -5M151 503l7 -5M205 508l7 -5M268 500l7 -5M500 499l7 -5M171 516l7 -5M193 520l7 -5M466 522l7 -5M312 538l7 -5M489 531l7 -5M542 540l7 -5M634 542l7 -5M282 559l7 -5M341 558l7 -5M384 549l7 -5M443 551l7 -5M600 560l7 -5M250 569l7 -5M437 570l7 -5M572 574l7 -5M303 590l7 -5M485 620l7 -5M381 626l7 -5" stroke="#ffffff" stroke-width="3" stroke-linecap="round"/><path d="M440 440Q520 470 600 420Q620 500 570 580Q480 560 440 440Z" fill="#b87870" opacity="0.18"/>
<path d="M148 424L300 450L440 440L600 420L660 350L760 760L40 760Z" fill="#1f2937" opacity="0.08"/>
<path d="M440 440L600 420L660 350L760 360L760 760L475 760L470 612Z" fill="#1f2937" opacity="0.07"/>
<path d="M-200 -200H1400V1000H-200ZM122 394L166 270L276 202L426 182L556 222L634 320L624 452L544 550L394 586L244 562L146 492Z" fill-rule="evenodd" fill="#1f2937" opacity="0.12"/>
<path d="M206 320L300 250L450 228L340 290L230 344Z" fill="#ffffff" opacity="0.35"/>
<path d="M148 424L300 450L440 440L600 420L660 350" fill="none" stroke="#1f2937" stroke-width="4" stroke-linecap="round" stroke-linejoin="round" opacity="0.4"/>
<path d="M440 440L470 612" fill="none" stroke="#1f2937" stroke-width="4" stroke-linecap="round" stroke-linejoin="round" opacity="0.4"/>
</g>
<g fill="none" stroke="#ffffff" stroke-linecap="round"><path d="M230 360Q280 300 360 280" stroke-width="10" opacity="0.8"/><path d="M520 300Q560 320 580 350" stroke-width="7" opacity="0.7"/></g>
<path d="M148 424L192 300L302 232L452 212L582 252L660 350L650 482L570 580L420 616L270 592L172 522Z" fill="none" stroke="#1f2937" stroke-width="6" stroke-linejoin="round"/>
</svg>
