<svg xmlns="http://www.w3.org/2000/svg" viewBox="0 0 800 800">
<defs>
<clipPath id="shale-clip"><path d="M120 400L176 334L330 300L560 290L662 318L702 352L688 372L702 382L690 402L708 412L690 434L700 448L668 472L678 484L640 508L520 524L380 530L240 522L152 502L128 490L138 476L112 462L124 448L102 432L118 416Z"/></clipPath>
<pattern id="shale-grain" width="30" height="30" patternUnits="userSpaceOnUse"><g fill="#3f444c"><circle cx="7" cy="16" r="1.1"/><circle cx="18" cy="19" r="0.9"/><circle cx="0" cy="25" r="1.0"/><circle cx="7" cy="30" r="1.2"/><circle cx="25" cy="14" r="1.3"/><circle cx="5" cy="19" r="1.5"/><circle cx="16" cy="22" r="1.3"/><circle cx="2" cy="23" r="1.3"/><circle cx="9" cy="1" r="1.5"/><circle cx="14" cy="22" r="1.5"/></g><g fill="#8a8f98"><circle cx="21" cy="28" r="0.8"/><circle cx="24" cy="13" r="1.2"/><circle cx="26" cy="3" r="0.7"/><circle cx="7" cy="29" r="0.9"/><circle cx="19" cy="9" r="0.9"/><circle cx="12" cy="11" r="1.0"/></g></pattern>
</defs>
<ellipse cx="410" cy="530" rx="300" ry="22" fill="#1f2937" opacity="0.12"/>
<g clip-path="url(#shale-clip)">
<path d="M120 400L176 334L330 300L560 290L662 318L702 352L688 372L702 382L690 402L708 412L690 434L700 448L668 472L678 484L640 508L520 524L380 530L240 522L152 502L128 490L138 476L112 462L124 448L102 432L118 416Z" fill="#5a5f68"/><path d="M120 400L176 334L330 300L560 290L662 318L702 352L688 372L702 382L690 402L708 412L690 434L700 448L668 472L678 484L640 508L520 524L380 530L240 522L152 502L128 490L138 476L112 462L124 448L102 432L118 416Z" fill="url(#shale-grain)"/><path d="M118 416L240 432L420 428L600 402L702 352L760 700L60 700Z" fill="#474c55"/><path d="M90 441L239 458L420 452L598 428L722 375L722 380L598 433L420 457L239 463L90 446ZM88 475L239 491L422 485L600 460L721 410L721 415L600 465L422 490L239 496L88 480ZM91 503L238 521L422 515L600 490L719 440L719 445L600 495L422 520L238 526L91 508ZM89 535L242 550L419 545L600 520L721 472L721 477L600 525L419 550L242 555L89 540Z" fill="#6b717b"/><path d="M90 429Q241 445 331 443Q421 441 511 427Q601 413 721 365M90 441Q239 458 330 455Q420 452 509 440Q598 428 722 375M90 451Q239 469 330 466Q421 463 511 450Q600 437 721 388M92 465Q242 480 330 479Q418 477 508 464Q598 450 720 401M88 475Q239 491 330 488Q422 485 511 473Q600 460 721 410M90 486Q240 500 330 498Q421 496 510 484Q599 472 720 421M90 493Q238 509 329 506Q421 503 511 491Q601 478 721 428M91 503Q238 521 330 518Q422 515 511 503Q600 490 719 440M89 514Q239 529 330 527Q421 524 511 512Q600 500 719 449M89 525Q240 542 329 540Q418 537 509 525Q599 513 720 463M89 535Q242 550 330 548Q419 545 510 532Q600 520 721 472" fill="none" stroke="#1f2937" stroke-width="2.5" opacity="0.55"/><path d="M330 300Q360 350 330 380Q420 372 470 420L420 428Q400 396 330 384Z" fill="#000000" opacity="0.18"/><path d="M330 300Q360 350 330 380Q420 372 470 420" fill="none" stroke="#1f2937" stroke-width="4" stroke-linecap="round" opacity="0.6"/>
<path d="M-200 -200H1400V1000H-200ZM106 382L162 316L316 282L546 272L648 300L688 334L674 354L688 364L676 384L694 394L676 416L686 430L654 454L664 466L626 490L506 506L366 512L226 504L138 484L114 472L124 458L98 444L110 430L88 414L104 398Z" fill-rule="evenodd" fill="#1f2937" opacity="0.16"/>
<path d="M190 360L330 318L520 306L360 336L220 378Z" fill="#ffffff" opacity="0.18"/>
<path d="M118 416L240 432L420 428L600 402L702 352" fill="none" stroke="#1f2937" stroke-width="4" stroke-linecap="round" stroke-linejoin="round" opacity="0.8"/>
</g>
<path d="M560 290L640 300L610 318L540 312Z" fill="#7c828c" stroke="#1f2937" stroke-width="4" stroke-linejoin="round"/><path d="M176 334L240 322L230 340L190 346Z" fill="#7c828c" stroke="#1f2937" stroke-width="4" stroke-linejoin="round"/>
<path d="M120 400L176 334L330 300L560 290L662 318L702 352L688 372L702 382L690 402L708 412L690 434L700 448L668 472L678 484L640 508L520 524L380 530L240 522L152 502L128 490L138 476L112 462L124 448L102 432L118 416Z" fill="none" stroke="#1f2937" stroke-width="6" stroke-linejoin="round"/>
</svg>
