<svg xmlns="http://www.w3.org/2000/svg" viewBox="0 0 1200 800">
  <defs>
    <clipPath id="pb-panel"><rect width="360" height="680" rx="18"/></clipPath>
    <linearGradient id="pb-mantle" x1="0" y1="0" x2="0" y2="1">
      <stop offset="0" stop-color="#fdba74"/>
      <stop offset="1" stop-color="#f97316"/>
    </linearGradient>
  </defs>
  <rect width="1200" height="800" fill="#ffffff"/>
  <g transform="translate(30 60)">
    <g clip-path="url(#pb-panel)">
      <rect width="360" height="680" fill="#e0f2fe"/>
      <rect y="170" width="360" height="520" fill="#60a5fa"/>
      <rect y="330" width="360" height="360" fill="url(#pb-mantle)"/>
      <path d="M120 690 Q150 520 168 262 L192 262 Q210 520 240 690 Z" fill="#ef4444"/>
      <path d="M160 690 Q172 520 176 320 L184 320 Q188 520 200 690 Z" fill="#facc15"/>
      <path d="M-10 300 L60 296 Q130 280 168 240 L168 332 Q100 346 -10 350 Z" fill="#78716c" stroke="#1f2937" stroke-width="6" stroke-linejoin="round"/>
      <path d="M370 300 L300 296 Q230 280 192 240 L192 332 Q260 346 370 350 Z" fill="#78716c" stroke="#1f2937" stroke-width="6" stroke-linejoin="round"/>
      <path d="M-10 336 Q100 334 168 318 L168 332 Q100 346 -10 350 Z M370 336 Q260 334 192 318 L192 332 Q260 346 370 350 Z" fill="#57534e"/>
      <path d="M-10 170 L370 170" stroke="#bfdbfe" stroke-width="6"/>
      <g fill="none" stroke="#c2410c" stroke-width="6" stroke-linecap="round" opacity="0.8"><path d="M130 400 Q56 410 56 510 Q56 610 120 616"/><path d="M230 400 Q304 410 304 510 Q304 610 240 616"/></g>
      <path d="M140 616 L118 602 L118 630 Z M220 616 L242 602 L242 630 Z" fill="#c2410c"/>
      <path d="M140 230 L70 230" stroke="#1f2937" stroke-width="20" stroke-linecap="round"/><path d="M40 230 L70 208 L70 252 Z" fill="#1f2937" stroke="#1f2937" stroke-width="10" stroke-linejoin="round"/><path d="M140 230 L68 230" stroke="#ffffff" stroke-width="9" stroke-linecap="round"/><path d="M40 230 L70 208 L70 252 Z" fill="#ffffff"/>
      <path d="M220 230 L290 230" stroke="#1f2937" stroke-width="20" stroke-linecap="round"/><path d="M320 230 L290 252 L290 208 Z" fill="#1f2937" stroke="#1f2937" stroke-width="10" stroke-linejoin="round"/><path d="M220 230 L292 230" stroke="#ffffff" stroke-width="9" stroke-linecap="round"/><path d="M320 230 L290 252 L290 208 Z" fill="#ffffff"/>
      <path d="M180 560 L180 500" stroke="#1f2937" stroke-width="20" stroke-linecap="round"/><path d="M180 470 L202 500 L158 500 Z" fill="#1f2937" stroke="#1f2937" stroke-width="10" stroke-linejoin="round"/><path d="M180 560 L180 498" stroke="#facc15" stroke-width="9" stroke-linecap="round"/><path d="M180 470 L202 500 L158 500 Z" fill="#facc15"/>
    </g>
    <rect width="360" height="680" rx="18" fill="none" stroke="#1f2937" stroke-width="6"/>
  </g>
  <g transform="translate(420 60)">
    <g clip-path="url(#pb-panel)">
      <rect width="360" height="680" fill="#e0f2fe"/>
      <rect y="250" width="360" height="440" fill="url(#pb-mantle)"/>
      <path d="M-10 190 L150 190 L150 300 L-10 300 Z" fill="#60a5fa"/>
      <path d="M-10 270 L120 270 Q170 272 200 300 L370 470 L370 560 L170 360 Q150 336 110 332 L-10 332 Z" fill="#78716c" stroke="#1f2937" stroke-width="6" stroke-linejoin="round"/>
      <path d="M-10 318 L110 318 Q160 322 180 344 L370 540 L370 560 L170 360 Q150 336 110 332 L-10 332 Z" fill="#57534e"/>
      <path d="M140 250 Q150 212 190 204 L370 196 L370 420 L300 396 L200 300 Q170 272 140 262 Z" fill="#d6a76c" stroke="#1f2937" stroke-width="6" stroke-linejoin="round"/>
      <path d="M370 380 L370 420 L300 396 L230 330 Q300 360 370 380 Z" fill="#b45309" opacity="0.5"/>
      <path d="M262 420 Q246 360 262 300 Q272 250 262 150 L276 150 Q290 250 284 300 Q274 360 290 420 Q276 440 262 420 Z" fill="#ef4444" stroke="#1f2937" stroke-width="4" stroke-linejoin="round"/>
      <path d="M190 206 L248 104 L292 104 L350 200 Z" fill="#92400e" stroke="#1f2937" stroke-width="6" stroke-linejoin="round"/>
      <path d="M248 104 L292 104 L284 126 L272 116 L262 130 L254 118 Z" fill="#ef4444"/>
      <path d="M270 70 q-24 -8 -14 -28 q-2 -26 26 -24 q18 -18 38 0 q26 -2 20 24 q12 22 -16 26 Z" fill="#9ca3af" stroke="#1f2937" stroke-width="5" stroke-linejoin="round"/>
      <path d="M-10 190 L150 190" stroke="#bfdbfe" stroke-width="6"/>
      <path d="M14 301 L74 301" stroke="#1f2937" stroke-width="20" stroke-linecap="round"/><path d="M104 301 L74 323 L74 279 Z" fill="#1f2937" stroke="#1f2937" stroke-width="10" stroke-linejoin="round"/><path d="M14 301 L76 301" stroke="#ffffff" stroke-width="9" stroke-linecap="round"/><path d="M104 301 L74 323 L74 279 Z" fill="#ffffff"/>
      <path d="M246 246 L196 246" stroke="#1f2937" stroke-width="20" stroke-linecap="round"/><path d="M166 246 L196 224 L196 268 Z" fill="#1f2937" stroke="#1f2937" stroke-width="10" stroke-linejoin="round"/><path d="M246 246 L194 246" stroke="#ffffff" stroke-width="9" stroke-linecap="round"/><path d="M166 246 L196 224 L196 268 Z" fill="#ffffff"/>
      <path d="M250 430 L299 479" stroke="#1f2937" stroke-width="20" stroke-linecap="round"/><path d="M320 500 L283 494 L314 463 Z" fill="#1f2937" stroke="#1f2937" stroke-width="10" stroke-linejoin="round"/><path d="M250 430 L300 480" stroke="#ffffff" stroke-width="9" stroke-linecap="round"/><path d="M320 500 L283 494 L314 463 Z" fill="#ffffff"/>
    </g>
    <rect width="360" height="680" rx="18" fill="none" stroke="#1f2937" stroke-width="6"/>
  </g>
  <g transform="translate(810 60)">
    <g clip-path="url(#pb-panel)">
      <rect width="360" height="680" fill="#f8fafc"/>
      <path d="M20 110 L180 110 L180 560 L20 560 Z" fill="#bbf7d0" stroke="#1f2937" stroke-width="6" stroke-linejoin="round"/>
      <path d="M180 110 L340 110 L340 560 L180 560 Z" fill="#bbf7d0" stroke="#1f2937" stroke-width="6" stroke-linejoin="round"/>
      <path d="M20 560 L180 560 L180 640 L20 640 Z" fill="#d6a76c" stroke="#1f2937" stroke-width="6" stroke-linejoin="round"/>
      <path d="M180 560 L340 560 L340 640 L180 640 Z" fill="#d6a76c" stroke="#1f2937" stroke-width="6" stroke-linejoin="round"/>
      <path d="M23 600 L177 600 M183 600 L337 600" stroke="#b45309" stroke-width="6"/>
      <path d="M24 320 Q100 308 176 332" fill="none" stroke="#3b82f6" stroke-width="16" stroke-linecap="butt"/>
      <path d="M184 462 Q260 486 336 474" fill="none" stroke="#3b82f6" stroke-width="16" stroke-linecap="butt"/>
      <rect x="23" y="160" width="154" height="40" fill="#9ca3af"/><path d="M34 180 L166 180" stroke="#ffffff" stroke-width="5" stroke-dasharray="18 14"/>
      <rect x="183" y="290" width="154" height="40" fill="#9ca3af"/><path d="M194 310 L326 310" stroke="#ffffff" stroke-width="5" stroke-dasharray="18 14"/>
      <path d="M180 104 L180 646" stroke="#1f2937" stroke-width="8" stroke-linecap="round"/>
      <path d="M100 535 L100 415" stroke="#1f2937" stroke-width="20" stroke-linecap="round"/><path d="M100 385 L122 415 L78 415 Z" fill="#1f2937" stroke="#1f2937" stroke-width="10" stroke-linejoin="round"/><path d="M100 535 L100 413" stroke="#ffffff" stroke-width="9" stroke-linecap="round"/><path d="M100 385 L122 415 L78 415 Z" fill="#ffffff"/>
      <path d="M260 130 L260 235" stroke="#1f2937" stroke-width="20" stroke-linecap="round"/><path d="M260 265 L238 235 L282 235 Z" fill="#1f2937" stroke="#1f2937" stroke-width="10" stroke-linejoin="round"/><path d="M260 130 L260 237" stroke="#ffffff" stroke-width="9" stroke-linecap="round"/><path d="M260 265 L238 235 L282 235 Z" fill="#ffffff"/>
    </g>
    <rect width="360" height="680" rx="18" fill="none" stroke="#1f2937" stroke-width="6"/>
  </g>
</svg>
