<svg xmlns="http://www.w3.org/2000/svg" viewBox="0 0 1200 800">
  <defs>
    <clipPath id="school-bus-body">
      <path d="M80 520 L80 245 Q80 215 110 215 L892 215 Q912 215 916 235 L940 370 L1060 370 Q1112 372 1118 420 L1120 520 Q1120 532 1108 532 L92 532 Q80 532 80 520 Z"/>
    </clipPath>
  </defs>
  <ellipse cx="600" cy="610" rx="560" ry="30" fill="#1f2937" opacity="0.12"/>
  <path d="M80 520 L80 245 Q80 215 110 215 L892 215 Q912 215 916 235 L940 370 L1060 370 Q1112 372 1118 420 L1120 520 Q1120 532 1108 532 L92 532 Q80 532 80 520 Z" fill="#facc15"/>
  <g clip-path="url(#school-bus-body)">
    <rect x="60" y="506" width="1080" height="40" fill="#ca8a04" opacity="0.45"/>
    <rect x="960" y="370" width="170" height="30" fill="#ffffff" opacity="0.25"/>
    <g fill="#1f2937">
      <rect x="60" y="376" width="1080" height="10"/>
      <rect x="60" y="440" width="1080" height="10"/>
      <rect x="60" y="490" width="1080" height="10"/>
    </g>
  </g>
  <path d="M110 232 L890 232" stroke="#ffffff" stroke-width="10" stroke-linecap="round" opacity="0.5"/>
  <path d="M80 520 L80 245 Q80 215 110 215 L892 215 Q912 215 916 235 L940 370 L1060 370 Q1112 372 1118 420 L1120 520 Q1120 532 1108 532 L92 532 Q80 532 80 520 Z" fill="none" stroke="#1f2937" stroke-width="6" stroke-linejoin="round"/>
  <path d="M940 370 L940 532" stroke="#1f2937" stroke-width="4"/>
  <rect x="100" y="246" width="72" height="270" rx="8" fill="none" stroke="#1f2937" stroke-width="5"/>
  <g fill="#bfdbfe" stroke="#1f2937" stroke-width="5" stroke-linejoin="round">
    <rect x="112" y="258" width="48" height="94" rx="6"/>
    <rect x="190" y="252" width="80" height="100" rx="8"/>
    <rect x="282" y="252" width="80" height="100" rx="8"/>
    <rect x="374" y="252" width="80" height="100" rx="8"/>
    <rect x="466" y="252" width="80" height="100" rx="8"/>
    <rect x="558" y="252" width="80" height="100" rx="8"/>
    <rect x="650" y="252" width="80" height="100" rx="8"/>
    <rect x="742" y="252" width="80" height="100" rx="8"/>
    <path d="M836 252 L890 252 Q898 252 900 260 L914 352 L844 352 Q836 352 836 344 Z"/>
    <path d="M916 240 L936 360 L922 360 L906 252 Z"/>
  </g>
  <g fill="#ffffff" opacity="0.6">
    <path d="M200 340 L230 262 L246 262 L216 340 Z"/>
    <path d="M292 340 L322 262 L338 262 L308 340 Z"/>
    <path d="M384 340 L414 262 L430 262 L400 340 Z"/>
    <path d="M476 340 L506 262 L522 262 L492 340 Z"/>
    <path d="M568 340 L598 262 L614 262 L584 340 Z"/>
    <path d="M660 340 L690 262 L706 262 L676 340 Z"/>
    <path d="M752 340 L782 262 L798 262 L768 340 Z"/>
    <path d="M848 340 L872 262 L886 262 L862 340 Z"/>
  </g>
  <g stroke="#1f2937" stroke-width="5" stroke-linejoin="round">
    <path d="M786 404 L808 395 L830 404 L839 426 L830 448 L808 457 L786 448 L777 426 Z" fill="#ef4444"/>
    <rect x="839" y="415" width="14" height="22" rx="4" fill="#1f2937"/>
  </g>
  <rect x="1102" y="410" width="24" height="36" rx="8" fill="#fef9c3" stroke="#1f2937" stroke-width="5"/>
  <rect x="1100" y="500" width="40" height="30" rx="6" fill="#374151" stroke="#1f2937" stroke-width="5"/>
  <rect x="62" y="500" width="30" height="30" rx="6" fill="#374151" stroke="#1f2937" stroke-width="5"/>
  <rect x="72" y="400" width="18" height="36" rx="6" fill="#ef4444" stroke="#1f2937" stroke-width="5"/>
  <g stroke="#1f2937" stroke-width="4">
    <circle cx="112" cy="206" r="9" fill="#ef4444"/>
    <circle cx="140" cy="206" r="9" fill="#f97316"/>
    <circle cx="862" cy="206" r="9" fill="#f97316"/>
    <circle cx="890" cy="206" r="9" fill="#ef4444"/>
  </g>
  <path d="M948 360 L990 310 L1010 310" fill="none" stroke="#1f2937" stroke-width="8" stroke-linecap="round" stroke-linejoin="round"/>
  <rect x="1000" y="282" width="24" height="52" rx="8" fill="#1f2937"/>
  <g stroke="#1f2937" stroke-width="6">
    <path d="M200 532 A90 90 0 0 1 380 532" fill="#1f2937"/>
    <circle cx="290" cy="540" r="68" fill="#374151"/>
    <circle cx="290" cy="540" r="30" fill="#cbd5e1"/>
    <circle cx="290" cy="540" r="10" fill="#94a3b8"/>
    <path d="M930 532 A90 90 0 0 1 1110 532" fill="#1f2937"/>
    <circle cx="1020" cy="540" r="68" fill="#374151"/>
    <circle cx="1020" cy="540" r="30" fill="#cbd5e1"/>
    <circle cx="1020" cy="540" r="10" fill="#94a3b8"/>
  </g>
</svg>
